<svg id="svg" version="1.1" width="400" height="293.0102516309413" viewBox="0 0 400 293.0102516309413" xmlns="http://www.w3.org/2000/svg" xmlns:xlink="http://www.w3.org/1999/xlink" ><g id="svgg"><path id="path0" d="M297.029 106.291 C 296.889 107.146,294.123 139.385,294.126 140.121 L 294.129 140.727 305.953 140.727 L 317.778 140.727 317.887 139.935 C 318.051 138.737,320.783 107.019,320.783 106.305 L 320.783 105.685 308.955 105.685 L 297.128 105.685 297.029 106.291 M332.445 107.503 C 332.316 108.685,329.544 140.520,329.544 140.824 C 329.543 140.928,330.698 141.199,332.108 141.426 C 344.951 143.490,353.656 149.163,366.363 163.747 C 374.968 173.623,378.980 176.795,385.130 178.589 C 386.902 179.106,386.704 179.432,386.965 175.578 C 389.242 142.061,366.932 112.552,335.042 106.902 C 334.119 106.739,333.184 106.566,332.963 106.519 C 332.599 106.440,332.551 106.530,332.445 107.503 M131.536 238.118 C 123.525 240.320,121.743 250.929,128.614 255.517 C 134.815 259.658,143.082 255.573,143.643 248.089 C 144.123 241.697,137.715 236.419,131.536 238.118 M313.070 238.045 C 307.989 239.238,304.529 245.060,305.986 249.966 C 308.936 259.905,322.752 259.336,324.850 249.190 C 326.216 242.585,319.758 236.475,313.070 238.045 " stroke="none" fill="#fbdb33" fill-rule="evenodd"></path><path id="path1" d="M85.299 1.443 C 83.524 2.036,81.896 4.006,81.561 5.965 C 81.473 6.477,77.540 46.854,77.540 47.241 C 77.540 47.295,61.372 47.361,41.612 47.388 C 7.342 47.435,5.645 47.453,4.810 47.777 C 0.006 49.645,-0.103 56.590,4.637 58.781 L 5.499 59.180 40.932 59.228 L 76.366 59.277 76.280 60.160 C 76.233 60.646,74.630 77.190,72.718 96.925 L 69.241 132.805 57.966 132.898 C 46.708 132.991,46.690 132.992,45.905 133.412 C 42.290 135.343,41.524 140.109,44.370 142.955 C 46.096 144.680,45.787 144.641,57.696 144.641 C 67.152 144.641,68.034 144.667,68.034 144.947 C 68.034 145.115,65.806 168.202,63.082 196.252 C 60.297 224.943,58.170 247.664,58.219 248.195 C 58.405 250.187,59.732 252.000,61.669 252.908 L 62.721 253.402 76.375 253.455 L 90.028 253.509 90.028 253.898 C 90.028 254.827,91.031 259.112,91.778 261.376 C 99.929 286.075,127.273 298.497,151.317 288.423 C 165.147 282.629,175.447 269.580,177.822 254.846 L 178.039 253.495 224.714 253.495 L 271.389 253.495 271.389 253.958 C 271.389 256.788,274.095 264.854,276.444 269.026 C 296.915 305.381,351.706 296.283,359.085 255.303 L 359.408 253.509 372.947 253.452 C 388.521 253.388,387.539 253.496,389.389 251.645 C 390.892 250.142,390.908 250.071,392.361 238.024 C 398.058 190.813,399.631 170.838,398.429 160.951 C 394.447 128.179,370.090 101.848,337.838 95.451 C 331.274 94.149,327.712 93.948,311.137 93.945 C 300.376 93.943,298.229 93.900,298.229 93.689 C 298.229 93.549,299.907 74.179,301.957 50.643 C 304.007 27.107,305.685 7.388,305.685 6.822 C 305.685 4.520,304.164 2.298,302.048 1.506 L 301.005 1.116 239.925 1.164 L 178.844 1.212 177.912 1.708 C 173.613 3.998,173.613 9.981,177.912 12.271 L 178.844 12.768 236.120 12.816 L 293.396 12.864 293.287 13.748 C 293.207 14.410,278.844 179.179,278.844 179.445 C 278.844 179.474,233.336 179.497,177.715 179.497 L 76.585 179.497 76.692 178.705 C 76.810 177.832,79.963 145.213,79.963 144.864 C 79.963 144.700,84.900 144.634,100.047 144.597 L 120.130 144.548 121.006 144.117 C 125.564 141.872,125.365 135.036,120.690 133.287 C 119.661 132.902,119.460 132.898,100.389 132.898 L 81.127 132.898 81.214 132.106 C 81.262 131.671,82.867 115.126,84.782 95.340 L 88.263 59.366 119.667 59.273 L 151.072 59.180 151.933 58.781 C 156.475 56.682,156.634 50.350,152.202 48.089 L 150.923 47.437 120.196 47.388 C 103.296 47.361,89.467 47.277,89.465 47.201 C 89.456 46.869,92.666 13.657,92.744 13.283 L 92.830 12.865 125.958 12.817 L 159.087 12.768 159.887 12.340 C 164.321 9.973,164.321 4.006,159.887 1.639 L 159.087 1.212 122.647 1.175 C 89.420 1.143,86.127 1.166,85.299 1.443 M26.495 94.140 C 21.135 95.211,20.362 103.061,25.392 105.334 L 26.375 105.778 42.125 105.778 L 57.875 105.778 58.930 105.260 C 63.403 103.064,63.290 96.662,58.741 94.529 L 57.689 94.035 42.498 94.007 C 34.143 93.991,26.941 94.051,26.495 94.140 M320.783 106.305 C 320.783 107.019,318.051 138.737,317.887 139.935 L 317.778 140.727 305.953 140.727 L 294.129 140.727 294.126 140.121 C 294.123 139.385,296.889 107.146,297.029 106.291 L 297.128 105.685 308.955 105.685 L 320.783 105.685 320.783 106.305 M335.042 106.902 C 366.932 112.552,389.242 142.061,386.965 175.578 C 386.704 179.432,386.902 179.106,385.130 178.589 C 378.980 176.795,374.968 173.623,366.363 163.747 C 353.656 149.163,344.951 143.490,332.108 141.426 C 330.698 141.199,329.543 140.928,329.544 140.824 C 329.544 140.520,332.316 108.685,332.445 107.503 C 332.551 106.530,332.599 106.440,332.963 106.519 C 333.184 106.566,334.119 106.739,335.042 106.902 M327.640 152.666 C 339.074 153.908,345.543 157.945,356.972 170.973 C 368.277 183.860,374.757 188.527,383.970 190.420 C 384.842 190.599,385.577 190.761,385.605 190.779 C 385.685 190.831,384.438 202.887,383.218 213.856 C 382.285 222.256,381.729 227.053,380.121 240.587 L 380.005 241.566 369.697 241.566 L 359.389 241.566 359.268 240.680 C 355.545 213.523,326.173 196.142,300.142 205.693 C 285.224 211.166,273.112 225.828,271.472 240.401 L 271.340 241.566 224.712 241.566 L 178.083 241.566 177.678 239.376 C 171.693 206.976,133.524 192.193,107.151 212.059 C 98.228 218.781,91.241 230.421,90.105 240.455 L 89.980 241.566 80.311 241.566 C 74.194 241.566,70.643 241.499,70.643 241.385 C 70.643 241.087,75.290 193.083,75.412 192.126 L 75.524 191.241 180.772 191.194 L 286.021 191.146 286.964 190.648 C 287.483 190.374,288.227 189.797,288.616 189.366 C 290.060 187.768,289.936 188.586,291.589 169.664 L 293.091 152.470 309.461 152.470 C 319.669 152.470,326.511 152.544,327.640 152.666 M139.515 215.362 C 157.768 218.629,169.865 236.596,165.816 254.427 C 160.052 279.811,128.768 288.735,110.706 270.147 C 91.747 250.637,103.419 218.396,130.662 215.028 C 132.076 214.853,137.899 215.073,139.515 215.362 M319.515 215.190 C 346.286 218.736,357.383 251.378,338.305 270.457 C 322.734 286.028,296.818 282.109,286.527 262.628 C 274.280 239.444,293.539 211.750,319.515 215.190 M130.038 226.393 C 113.000 229.471,106.633 250.803,119.136 262.922 C 131.565 274.970,152.595 267.871,155.174 250.756 C 157.378 236.133,144.612 223.760,130.038 226.393 M311.399 226.381 C 294.297 229.605,287.977 250.786,300.497 262.922 C 312.919 274.964,333.957 267.861,336.535 250.756 C 338.729 236.199,325.804 223.666,311.399 226.381 M136.453 238.138 C 143.586 240.256,146.060 248.843,141.046 254.076 C 134.941 260.447,124.312 256.231,124.327 247.445 C 124.337 241.231,130.622 236.407,136.453 238.138 M317.813 238.138 C 325.146 240.315,327.437 248.922,322.103 254.256 C 316.769 259.590,308.163 257.299,305.986 249.966 C 303.952 243.115,310.962 236.104,317.813 238.138 " stroke="none" fill="#040404" fill-rule="evenodd"></path></g></svg>