<svg id="svg" version="1.1" width="400" height="400" viewBox="0 0 400 400" xmlns="http://www.w3.org/2000/svg" xmlns:xlink="http://www.w3.org/1999/xlink" ><g id="svgg"><path id="path0" d="M213.413 75.481 L 213.417 101.360 213.848 102.406 C 214.422 103.803,215.104 104.660,216.278 105.464 C 218.190 106.773,216.702 106.711,244.968 106.658 L 270.418 106.610 241.913 78.106 L 213.408 49.602 213.413 75.481 M269.948 209.284 L 240.131 222.192 240.131 261.166 L 240.131 300.141 240.567 302.087 C 242.025 308.597,245.544 314.354,250.427 318.217 C 253.158 320.378,299.915 353.512,300.121 353.433 C 300.364 353.339,347.251 320.040,348.985 318.730 C 355.059 314.138,359.079 306.920,359.851 299.217 C 360.166 296.074,360.138 222.520,359.822 222.271 C 359.534 222.044,300.441 196.492,300.047 196.425 C 299.892 196.398,286.348 202.185,269.948 209.284 M342.714 233.921 C 346.136 235.487,347.627 239.583,345.995 242.932 C 345.555 243.835,292.108 310.727,291.089 311.651 C 289.402 313.180,286.981 313.701,284.737 313.020 C 283.374 312.606,256.297 292.612,254.963 291.034 C 251.261 286.656,254.295 280.075,260.009 280.084 C 262.412 280.087,262.111 279.899,274.443 289.143 C 280.519 293.698,285.548 297.361,285.617 297.283 C 285.687 297.204,296.887 283.206,310.505 266.174 C 324.124 249.143,335.549 234.997,335.894 234.738 C 337.914 233.226,340.515 232.914,342.714 233.921 " stroke="none" fill="#fbdb33" fill-rule="evenodd"></path><path id="path1" d="M42.382 0.367 C 34.654 2.022,28.594 8.139,27.017 15.877 C 26.690 17.484,26.629 18.470,26.629 22.205 L 26.629 26.629 22.205 26.629 C 18.470 26.629,17.484 26.690,15.877 27.017 C 8.418 28.537,2.510 34.179,0.501 41.700 L 0.094 43.226 0.094 213.502 L 0.094 383.779 0.617 385.448 C 2.809 392.445,7.580 397.221,14.534 399.382 L 16.221 399.906 146.460 399.906 L 276.699 399.906 278.225 399.499 C 281.356 398.662,284.160 397.181,286.596 395.077 L 287.678 394.142 288.377 394.618 C 288.762 394.879,290.216 395.901,291.608 396.888 C 296.551 400.391,300.815 401.011,305.204 398.865 C 306.664 398.151,368.972 353.962,373.933 350.122 C 387.842 339.357,396.550 324.275,399.490 305.860 L 399.895 303.329 399.951 251.071 C 400.006 198.986,400.005 198.809,399.627 197.797 C 399.218 196.704,398.280 195.488,397.320 194.804 C 396.990 194.569,379.505 186.943,358.464 177.857 L 320.206 161.337 320.105 89.154 C 319.992 8.779,320.130 16.464,318.735 12.749 C 316.569 6.983,311.370 2.287,305.204 0.527 L 303.704 0.099 173.840 0.062 C 48.884 0.027,43.915 0.038,42.382 0.367 M302.860 14.132 C 304.223 14.841,305.548 16.263,306.086 17.592 L 306.517 18.659 306.565 87.054 L 306.613 155.449 305.065 154.782 C 301.693 153.329,301.712 153.335,300.047 153.323 C 298.381 153.310,298.032 153.415,294.562 154.973 L 293.483 155.457 293.483 134.303 C 293.483 112.375,293.462 111.716,292.699 110.179 C 292.219 109.212,211.221 28.124,210.109 27.496 C 208.501 26.590,212.421 26.629,123.861 26.629 L 40.105 26.629 40.165 22.457 C 40.244 16.976,41.144 15.115,44.305 13.899 C 45.288 13.521,45.339 13.521,173.558 13.558 L 301.828 13.596 302.860 14.132 M199.953 71.683 L 200.009 103.235 200.414 104.735 C 202.538 112.608,208.517 118.265,216.268 119.735 C 217.564 119.981,221.894 120.019,248.873 120.019 L 279.983 120.019 279.935 140.656 L 279.887 161.293 269.510 165.785 C 263.802 168.255,259.110 170.277,259.083 170.277 C 259.055 170.277,259.250 169.834,259.516 169.292 C 260.983 166.302,259.605 162.380,256.497 160.694 L 255.321 160.056 206.732 160.056 L 158.143 160.056 156.859 160.713 C 151.885 163.255,152.113 170.452,157.243 172.846 L 158.368 173.371 204.932 173.465 L 251.496 173.558 236.531 180.028 L 221.566 186.498 129.864 186.592 L 38.162 186.685 37.100 187.207 C 31.691 189.863,32.151 197.964,37.811 199.712 C 39.044 200.093,39.129 200.094,119.476 200.094 L 199.906 200.094 199.906 206.654 L 199.906 213.214 179.137 213.265 L 158.368 213.315 157.243 213.840 C 151.622 216.462,152.098 224.701,157.972 226.446 C 158.771 226.683,161.865 226.723,179.406 226.723 L 199.906 226.723 199.906 233.286 L 199.906 239.850 119.691 239.853 C 33.029 239.856,38.314 239.793,36.525 240.842 C 31.551 243.757,32.535 251.630,38.066 253.167 C 38.490 253.285,67.477 253.350,119.316 253.351 L 199.906 253.352 199.906 260.007 L 199.906 266.662 178.950 266.711 L 157.993 266.760 157.119 267.191 C 151.819 269.802,152.045 277.444,157.487 279.643 L 158.556 280.075 179.231 280.127 L 199.906 280.178 199.906 286.737 L 199.906 293.296 119.222 293.300 L 38.537 293.305 37.472 293.743 C 31.928 296.023,31.814 303.640,37.285 306.205 L 38.350 306.704 119.556 306.752 L 200.761 306.800 201.001 308.346 C 201.447 311.223,203.031 317.282,203.942 319.594 C 204.063 319.901,202.811 319.922,181.125 319.969 L 158.181 320.019 157.105 320.547 C 151.956 323.075,151.979 330.284,157.142 332.823 L 158.181 333.333 184.530 333.383 L 210.879 333.433 211.439 334.321 C 213.228 337.157,217.577 342.440,220.429 345.241 L 221.671 346.460 130.010 346.554 L 38.350 346.648 37.181 347.188 C 31.637 349.748,32.133 358.051,37.932 359.773 C 38.779 360.024,50.270 360.056,139.371 360.056 L 239.856 360.056 257.955 372.941 L 276.054 385.825 275.533 386.115 C 275.065 386.375,261.984 386.409,146.891 386.452 L 18.770 386.499 17.683 386.093 C 16.183 385.532,14.468 383.818,13.908 382.318 L 13.502 381.233 13.502 213.315 L 13.502 45.396 13.883 44.377 C 14.535 42.636,16.064 41.146,17.866 40.498 C 18.821 40.154,21.201 40.145,109.372 40.138 L 199.898 40.131 199.953 71.683 M244.968 106.658 C 216.702 106.711,218.190 106.773,216.278 105.464 C 215.104 104.660,214.422 103.803,213.848 102.406 L 213.417 101.360 213.413 75.481 L 213.408 49.602 241.913 78.106 L 270.418 106.610 244.968 106.658 M38.768 60.014 C 31.338 61.286,31.560 72.182,39.040 73.341 C 41.358 73.700,81.340 73.475,82.281 73.097 C 88.225 70.712,88.225 62.621,82.281 60.236 C 81.404 59.884,40.737 59.676,38.768 60.014 M112.092 60.016 C 104.741 61.253,104.879 72.120,112.262 73.329 C 113.876 73.593,173.065 73.573,174.501 73.307 C 181.861 71.947,181.861 61.387,174.501 60.026 C 173.191 59.784,113.530 59.775,112.092 60.016 M37.649 133.617 C 31.924 135.720,31.806 144.022,37.468 146.310 L 38.537 146.742 146.648 146.742 L 254.759 146.742 255.828 146.310 C 261.394 144.061,261.420 135.796,255.868 133.718 L 254.838 133.333 146.594 133.347 C 55.323 133.358,38.240 133.400,37.649 133.617 M37.472 160.409 C 31.928 162.693,31.813 170.307,37.285 172.872 L 38.350 173.371 86.639 173.371 L 134.927 173.371 136.146 172.788 C 141.360 170.295,141.384 163.079,136.187 160.496 L 135.302 160.056 86.920 160.013 L 38.537 159.970 37.472 160.409 M343.283 186.092 L 386.404 204.721 386.455 252.337 C 386.500 293.937,386.471 300.270,386.222 302.457 C 384.577 316.912,377.287 330.133,366.048 339.040 C 364.418 340.333,300.426 385.961,300.076 386.081 C 299.883 386.146,236.273 340.872,233.728 338.858 C 224.199 331.317,217.072 319.640,214.561 307.454 C 213.448 302.050,213.523 305.766,213.459 253.052 L 213.400 204.838 256.583 186.158 C 280.333 175.884,299.855 167.475,299.964 167.471 C 300.072 167.467,319.566 175.846,343.283 186.092 M298.078 182.532 C 296.286 183.135,230.114 211.837,229.399 212.321 C 228.282 213.078,227.346 214.386,226.909 215.801 C 226.477 217.200,226.314 295.279,226.733 300.141 C 227.656 310.844,232.923 321.081,241.056 327.976 C 244.360 330.777,296.831 367.914,297.940 368.236 C 299.289 368.628,301.709 368.514,302.751 368.008 C 303.557 367.617,355.683 330.570,358.046 328.709 C 366.307 322.202,371.979 311.846,373.178 301.078 C 373.327 299.741,373.371 287.251,373.332 257.571 L 373.277 215.940 372.872 215.063 C 372.413 214.070,371.175 212.650,370.301 212.113 C 369.978 211.915,354.440 205.154,335.771 197.088 L 301.828 182.424 300.328 182.352 C 299.381 182.306,298.552 182.372,298.078 182.532 M329.958 209.280 C 346.254 216.323,359.693 222.169,359.822 222.271 C 360.138 222.520,360.166 296.074,359.851 299.217 C 359.079 306.920,355.059 314.138,348.985 318.730 C 347.251 320.040,300.364 353.339,300.121 353.433 C 299.915 353.512,253.158 320.378,250.427 318.217 C 245.544 314.354,242.025 308.597,240.567 302.087 L 240.131 300.141 240.131 261.166 L 240.131 222.192 269.948 209.284 C 286.348 202.185,299.892 196.398,300.047 196.425 C 300.202 196.451,313.662 202.236,329.958 209.280 M38.162 213.484 C 32.698 215.216,31.472 222.361,36.091 225.545 C 37.940 226.819,33.930 226.730,87.018 226.677 L 135.115 226.629 136.169 226.135 C 141.800 223.494,141.180 215.235,135.221 213.515 C 133.837 213.115,39.420 213.085,38.162 213.484 M338.552 233.471 C 337.642 233.664,336.778 234.076,335.894 234.738 C 335.549 234.997,324.124 249.143,310.505 266.174 C 296.887 283.206,285.687 297.204,285.617 297.283 C 285.548 297.361,280.519 293.698,274.443 289.143 C 262.111 279.899,262.412 280.087,260.009 280.084 C 254.295 280.075,251.261 286.656,254.963 291.034 C 256.297 292.612,283.374 312.606,284.737 313.020 C 286.981 313.701,289.402 313.180,291.089 311.651 C 292.108 310.727,345.555 243.835,345.995 242.932 C 348.405 237.988,343.950 232.325,338.552 233.471 M37.649 266.951 C 31.924 269.053,31.806 277.355,37.468 279.643 L 38.537 280.075 85.888 280.128 C 135.113 280.184,134.825 280.188,136.370 279.400 C 141.483 276.792,141.161 269.039,135.857 267.055 L 134.819 266.667 86.585 266.680 C 46.185 266.691,38.236 266.735,37.649 266.951 M37.772 320.266 C 32.937 321.941,31.688 328.139,35.479 331.648 C 37.618 333.629,31.985 333.440,87.107 333.383 L 135.115 333.333 136.183 332.833 C 136.771 332.557,137.642 331.941,138.120 331.463 C 141.400 328.183,140.393 322.493,136.183 320.519 L 135.115 320.019 86.920 319.977 C 41.335 319.938,38.673 319.954,37.772 320.266 " stroke="none" fill="#040404" fill-rule="evenodd"></path></g></svg>