<svg xmlns="http://www.w3.org/2000/svg" viewBox="0 0 342.472 125.287">
  <defs>
    <style>
      .cls-1 {
        fill: #e9e9e9;
        fill-rule: evenodd;
      }
    </style>
  </defs>
  <g id="image2vector" transform="translate(-969.383 -105.74)">
    <path id="path0" class="cls-1" d="M109.466,25.984c-.406.406-.283,32.519.126,32.738a34.029,34.029,0,0,0,7.318-.028c.148-.148.2-1.332.2-4.254,0-2.227.046-4.171.1-4.319.091-.236.626-.271,4.226-.273,11.412-.006,16.413-3.673,16.413-12.033,0-5.171-1.815-8.224-6.146-10.335a16.244,16.244,0,0,0-4.835-1.516c-1.338-.272-17.135-.255-17.41.02m29.274-.092a27.8,27.8,0,0,0,.1,6.151c.117.076,2.441.176,5.164.223l4.951.086L149,45.4c.031,9.291.1,13.11.234,13.273.229.275,7.064.332,7.49.063.223-.141.267-1.867.342-13.271l.085-13.109,5.122-.092c2.816-.051,5.142-.108,5.168-.128s.025-1.438,0-3.152l-.047-3.116-14.268-.043c-7.848-.024-14.32.008-14.384.071m32.67.217c-.118.221-.177,5.6-.177,16.23s.059,16.009.177,16.23c.178.332,6.617.529,7.407.226.236-.09.27-.632.27-4.319,0-3.051.056-4.272.205-4.421s1.326-.205,4.225-.205c8.686,0,13.085-1.912,15.369-6.673a11.768,11.768,0,0,0-8.446-16.883c-.564-.111-1.347-.272-1.741-.358-1.59-.349-17.093-.194-17.289.173m-44.9,6.636a5.359,5.359,0,0,1-.054,10.108c-1.37.48-8.922.743-9.19.32a107.407,107.407,0,0,1-.027-10.808c.332-.333,8.291-.007,9.271.38m62.011.017a5.341,5.341,0,0,1,.53,9.862c-1.724.792-9.415,1.114-9.792.409a96.073,96.073,0,0,1-.066-10.514c.189-.491,7.969-.289,9.328.243M23.429,52.454l.045,4.823h78.02v-9.56l-39.055-.043-39.056-.043.046,4.823m0,14.682.045,4.823L194.558,72l171.084.043.107-.534a71.516,71.516,0,0,0-.06-8.76l-.166-.438H23.384l.045,4.823m0,14.682.045,4.823,171.079.043,171.079.043.118-4.411a30.713,30.713,0,0,0-.054-4.866L365.523,77H23.384l.045,4.823M287.572,91.893c-.046.119-.063,2.289-.038,4.823l.046,4.607,39.055.043,39.055.043-.045-4.823-.045-4.823-38.973-.043c-31.331-.035-38.988,0-39.055.173m-43.356,12.99a4.118,4.118,0,0,0,.619,7.7c3.952,1.174,7.5-2.161,6.031-5.672-.9-2.152-4.213-3.161-6.65-2.026m59.529-.036c-4.134,2.049-2.772,7.661,1.931,7.958,4.914.31,7-5.8,2.7-7.911a7.449,7.449,0,0,0-4.632-.047m-152.018,3.766c-.283.209-.3,1.137-.256,16.526l.044,16.3,12.025.043c9.507.035,12.054,0,12.161-.17a22.946,22.946,0,0,0-.087-5.911c-.159-.132-2.67-.2-8.237-.235l-8.009-.044-.085-13.174c-.047-7.246-.149-13.238-.227-13.316a35.319,35.319,0,0,0-7.329-.023M282.961,110.7c-.3.217-.341.523-.417,3.03l-.086,2.788-1.612.05c-2.155.066-2.058-.076-2.058,3.023s-.1,2.958,2.058,3.024l1.612.049.1,5.719c.158,8.8.951,10.973,4.593,12.6,3.412,1.518,9.861,1.134,10.974-.654a18.116,18.116,0,0,0-1.682-4.89l-.24-.375-.813.366c-1.876.844-3.99.35-4.776-1.118-.368-.687-.572-10.727-.231-11.365.186-.348.313-.363,2.971-.363,3.443,0,3.187.24,3.187-2.988s.256-2.987-3.187-2.987c-3.377,0-3.13.26-3.13-3.3,0-2.591-.007-2.64-.384-2.741a32.231,32.231,0,0,0-6.881.135m-95.469,5.4c-13.663,3.085-13.768,22.167-.14,25.429,8.748,2.094,16.831-2.927,17.709-11,1.065-9.792-7.381-16.729-17.569-14.429m29.8,0c-12.19,3.034-12.588,19.875-.56,23.757,3.4,1.1,8.334.361,11-1.639.819-.613.948-.393.71,1.207-.491,3.3-2.176,4.931-5.566,5.373a15.611,15.611,0,0,1-9.353-2.014c-1.281-.777-1.244-.8-2.7,1.854-1.506,2.741-1.531,2.939-.462,3.658,4.393,2.952,13.841,3.659,18.956,1.417a10.761,10.761,0,0,0,6.235-7.428l.472-1.69V116.176l-3.4-.047c-3.858-.052-3.676-.119-3.68,1.36,0,1.188-.161,1.31-.889.686-2.5-2.148-7-3.017-10.76-2.081m46.132-.158c-5.754,1.224-8.277,3.717-8.279,8.182,0,4.616,2.289,6.454,9.474,7.6,4.72.751,5.5,1.09,5.5,2.394,0,2.5-6.453,2.732-11.45.41-1.9-.88-1.726-.987-3.075,1.942-1.211,2.626-1.228,2.739-.49,3.192,3.639,2.233,12.133,2.994,16.442,1.474,7.928-2.8,8.118-11.918.3-14.086-1.087-.3-1.79-.446-5.6-1.152-3.07-.57-3.841-1.014-3.841-2.212,0-2.424,5.906-2.882,10.441-.81a2.78,2.78,0,0,0,1.233.339,26.76,26.76,0,0,0,2.434-4.844c.377-1.5-9.128-3.269-13.084-2.427m62.228.01a16.81,16.81,0,0,0-4.112,1.361c-9.761,4.738-9.275,19.379.778,23.464,6.593,2.679,14.8.634,17.307-4.312.562-1.111.672-.994-2.6-2.772-2.736-1.488-2.879-1.513-3.44-.6-2.341,3.789-8.648,3.283-10.673-.855-3.471-7.1,5.128-13.791,10.293-8.015,1.211,1.354.947,1.373,4.084-.289,3.011-1.6,3.011-1.6,2.006-3.169-2.413-3.773-8.683-5.982-13.645-4.808m24.5.143c-5.154,1.09-7.853,3.846-7.853,8.019,0,3.67,1.914,5.87,6,6.894a53.9,53.9,0,0,0,5.356,1.04c2.884.473,3.67.913,3.67,2.056,0,2.638-8.008,2.684-12.237.07-.847-.523-.992-.379-2.206,2.182-1.5,3.158-1.408,3.33,2.321,4.486,10.91,3.38,20.663-.758,19.465-8.257-.59-3.694-3-5.274-9.764-6.409-4.222-.708-5.262-1.194-5.262-2.46,0-2.451,6.352-2.91,10.621-.767,1.139.572,1.171.544,2.421-2.1,1.332-2.813,1.332-2.821.1-3.423-3.044-1.491-8.946-2.114-12.634-1.334m-107.377.332c-.3.554-.24,24.671.058,24.919a14.815,14.815,0,0,0,3.8.149l3.563-.046.047-12.292c.026-6.761.005-12.465-.046-12.676-.135-.56-7.123-.611-7.421-.054m59.6-.1c-.144.174-.184,3.524-.152,12.68l.044,12.444,3.714.046,3.715.046-.044-12.68-.044-12.679-3.519-.046c-2.826-.037-3.557,0-3.714.189m-108.4,6.312a7.018,7.018,0,0,1,3.409,7.514,6.207,6.207,0,0,1-12.346-.079c-.785-5.662,4.158-9.774,8.937-7.435m31.161.019a5.966,5.966,0,0,1,3.1,7.547c-1.836,4.909-9.613,5.217-11.948.473-2.591-5.263,3.258-10.563,8.851-8.02" transform="translate(946 80)"/>
  </g>
</svg>
