<?xml version="1.0" encoding="iso-8859-1"?>
<!-- Generator: Adobe Illustrator 19.0.0, SVG Export Plug-In . SVG Version: 6.00 Build 0)  -->
<svg version="1.1" id="Capa_1" xmlns="http://www.w3.org/2000/svg" xmlns:xlink="http://www.w3.org/1999/xlink" x="0px" y="0px"
	 viewBox="0 0 512 512" style="enable-background:new 0 0 512 512;" xml:space="preserve">
<path style="fill:#00BCE7;" d="M307.67,403.442l55.598,48.652c1.322,1.157,2.081,2.828,2.081,4.585v16.377
	c0,3.365-2.728,6.093-6.093,6.093H146.65v-22.469c0-1.757,0.759-3.428,2.081-4.585l55.598-48.652H307.67z"/>
<path style="fill:#0076B5;" d="M148.73,452.095c-1.322,1.157-2.081,2.828-2.081,4.585v4.852h218.698v-4.852
	c0-1.757-0.759-3.428-2.081-4.585l-6.623-5.795H155.353L148.73,452.095z"/>
<path style="fill:#FFD151;" d="M365.35,174.041v-8.437c0-3.365,2.728-6.093,6.093-6.093h55.107c3.365,0,6.093,2.728,6.093,6.093
	v39.024l-0.001,81.057c0,18.363-14.71,33.289-32.99,33.64c-18.863,0.361-34.302-15.438-34.302-34.304V174.041z"/>
<path style="fill:#F79B4A;" d="M426.55,159.511h-20.26c3.365,0,6.093,2.728,6.093,6.093v39.024l-0.001,81.057
	c0,15.012-9.834,27.723-23.409,32.055c3.365,1.089,6.954,1.656,10.679,1.585c18.28-0.349,32.99-15.277,32.99-33.64l0.001-81.056
	v-39.024C432.643,162.24,429.914,159.511,426.55,159.511z"/>
<path style="fill:#00BCE7;" d="M314.879,285.683l178.962,0.001c3.365,0,6.093-2.728,6.093-6.093v-40.453
	c0-2.389-1.396-4.558-3.571-5.547L316.08,151.646c-0.792-0.359-1.651-0.546-2.521-0.546h-10.847c-3.365,0-6.093,2.728-6.093,6.093
	v122.399c0,3.365,2.728,6.093,6.093,6.093L314.879,285.683z"/>
<g>
	<path style="fill:#0076B5;" d="M398.997,252.833c-4.207,0-7.616,3.41-7.616,7.616v25.235h15.232V260.45
		C406.613,256.243,403.204,252.833,398.997,252.833z"/>
	<path style="fill:#0076B5;" d="M348.526,252.833c-4.207,0-7.616,3.41-7.616,7.616v25.234h15.232V260.45
		C356.142,256.243,352.733,252.833,348.526,252.833z"/>
	<path style="fill:#0076B5;" d="M457.876,252.833c-4.207,0-7.616,3.41-7.616,7.616v25.235h15.232V260.45
		C465.493,256.243,462.083,252.833,457.876,252.833z"/>
</g>
<g>
	<path style="fill:#0094D4;" d="M302.693,285.683c0.006,0,0.012,0.001,0.019,0.001l11.26-0.001H302.693z"/>
	<path style="fill:#0094D4;" d="M496.363,233.592l-180.282-81.946c-0.792-0.359-1.651-0.546-2.521-0.546h-10.847
		c-1.667,0-3.177,0.671-4.277,1.757l177.619,80.736c2.175,0.989,3.571,3.157,3.571,5.547v40.453c0,3.364-2.727,6.092-6.092,6.093
		h20.309c3.365,0,6.093-2.728,6.093-6.093v-40.453C499.934,236.749,498.537,234.58,496.363,233.592z"/>
</g>
<polygon style="fill:#58565C;" points="296.618,268.066 499.934,268.066 499.934,252.833 465.493,252.833 465.493,219.56 
	450.26,212.636 450.26,252.833 296.618,252.833 "/>
<g>
	<polygon style="fill:#49484D;" points="450.26,221.867 465.493,228.791 465.493,219.56 450.26,212.636 	"/>
	<rect x="479.62" y="252.833" style="fill:#49484D;" width="20.31" height="15.232"/>
</g>
<path style="fill:#FFD151;" d="M146.649,174.041v-8.437c0-3.365-2.728-6.093-6.093-6.093H85.449c-3.365,0-6.093,2.728-6.093,6.093
	v39.024l0.001,81.057c0,18.363,14.71,33.289,32.99,33.64c18.863,0.361,34.302-15.438,34.302-34.304V174.041z"/>
<path style="fill:#F79B4A;" d="M85.449,159.511h20.26c-3.365,0-6.093,2.728-6.093,6.093v39.024l0.001,81.057
	c0,15.012,9.834,27.723,23.409,32.055c-3.365,1.089-6.954,1.656-10.679,1.585c-18.28-0.349-32.99-15.277-32.99-33.64l-0.001-81.056
	v-39.024C79.356,162.24,82.085,159.511,85.449,159.511z"/>
<path style="fill:#00BCE7;" d="M197.12,285.683l-178.963,0.001c-3.365,0-6.093-2.728-6.093-6.093v-40.453
	c0-2.389,1.396-4.558,3.571-5.547l180.282-81.946c0.792-0.359,1.651-0.546,2.521-0.546h10.847c3.365,0,6.093,2.728,6.093,6.093
	v122.399c0,3.365-2.729,6.093-6.093,6.093L197.12,285.683z"/>
<g>
	<path style="fill:#0076B5;" d="M113.002,252.833c4.207,0,7.616,3.41,7.616,7.616v25.235h-15.232V260.45
		C105.386,256.243,108.795,252.833,113.002,252.833z"/>
	<path style="fill:#0076B5;" d="M163.473,252.833c4.207,0,7.616,3.41,7.616,7.616v25.234h-15.232V260.45
		C155.857,256.243,159.266,252.833,163.473,252.833z"/>
	<path style="fill:#0076B5;" d="M54.122,252.833c4.207,0,7.616,3.41,7.616,7.616v25.235H46.506V260.45
		C46.506,256.243,49.916,252.833,54.122,252.833z"/>
</g>
<g>
	<path style="fill:#0094D4;" d="M209.306,285.683c-0.006,0-0.012,0.001-0.019,0.001l-11.26-0.001H209.306z"/>
	<path style="fill:#0094D4;" d="M15.637,233.592l180.282-81.946c0.792-0.359,1.651-0.546,2.521-0.546h10.847
		c1.667,0,3.177,0.671,4.277,1.757L35.946,233.592c-2.175,0.989-3.571,3.157-3.571,5.547v40.453c0,3.364,2.727,6.092,6.092,6.093
		H18.158c-3.365,0-6.093-2.728-6.093-6.093v-40.453C12.064,236.749,13.462,234.58,15.637,233.592z"/>
</g>
<polygon style="fill:#58565C;" points="215.38,268.066 12.064,268.066 12.064,252.833 46.506,252.833 46.506,219.56 61.738,212.636 
	61.738,252.833 215.38,252.833 "/>
<g>
	<polygon style="fill:#49484D;" points="61.738,221.867 46.506,228.791 46.506,219.56 61.738,212.636 	"/>
	<rect x="12.064" y="252.833" style="fill:#49484D;" width="20.31" height="15.232"/>
</g>
<path style="fill:#B6E3EE;" d="M314.879,79.949c0-36.958-23.837-68.345-56.974-79.635c-1.232-0.419-2.577-0.419-3.809,0
	c-33.137,11.29-56.974,42.676-56.974,79.635v306.673l50.468,117.761h16.822l50.469-117.761L314.879,79.949z"/>
<path style="fill:#96D2E0;" d="M314.879,79.949c0-36.958-23.837-68.345-56.974-79.635c-1.232-0.419-2.577-0.419-3.809,0
	c-2.82,0.961-5.566,2.078-8.242,3.321c28.774,13.363,48.734,42.501,48.734,76.314l0.001,306.673l-48.735,113.713l1.734,4.048h16.822
	l50.469-117.761L314.879,79.949z"/>
<path style="fill:#00BCE7;" d="M256,379.007c-4.206,0-7.616,3.41-7.616,7.616v117.761c0,4.206,3.41,7.616,7.616,7.616
	c4.206,0,7.616-3.41,7.616-7.616V386.623C263.616,382.417,260.206,379.007,256,379.007z"/>
<path style="fill:#58565C;" d="M289.646,91.422c-4.207,0-7.616-3.41-7.616-7.616c0-14.354-11.677-26.031-26.031-26.031
	c-14.353,0-26.031,11.677-26.031,26.031c0,4.206-3.41,7.616-7.616,7.616s-7.616-3.41-7.616-7.616
	c0-22.753,18.51-41.263,41.263-41.263s41.263,18.51,41.263,41.263C297.262,88.012,293.852,91.422,289.646,91.422z"/>
<path style="fill:#00BCE7;" d="M217.623,24.926h76.752c-9.659-11.154-22.198-19.747-36.466-24.61c-1.235-0.42-2.584-0.42-3.82,0
	C239.822,5.179,227.283,13.772,217.623,24.926z"/>
<path style="fill:#0094D4;" d="M293.944,24.444c-1.531-1.742-3.134-3.419-4.802-5.029c-0.196-0.19-0.389-0.383-0.587-0.57
	c-0.455-0.431-0.92-0.851-1.384-1.271c-0.275-0.249-0.548-0.499-0.826-0.743c-0.444-0.391-0.894-0.776-1.346-1.158
	c-0.312-0.263-0.626-0.525-0.94-0.784c-0.442-0.363-0.888-0.722-1.337-1.075c-0.339-0.267-0.682-0.529-1.027-0.791
	c-0.441-0.336-0.881-0.672-1.329-1c-0.375-0.274-0.756-0.54-1.135-0.807c-0.431-0.304-0.858-0.612-1.295-0.909
	c-0.559-0.379-1.126-0.745-1.694-1.111c-0.562-0.363-1.129-0.717-1.701-1.065c-0.518-0.317-1.036-0.635-1.561-0.94
	c-0.383-0.223-0.773-0.437-1.16-0.653c-0.5-0.28-0.999-0.56-1.505-0.829c-0.393-0.209-0.789-0.413-1.185-0.616
	c-0.516-0.265-1.033-0.525-1.555-0.78c-0.391-0.191-0.784-0.379-1.178-0.564c-0.546-0.256-1.098-0.505-1.65-0.749
	c-0.376-0.167-0.751-0.334-1.13-0.495c-0.618-0.263-1.243-0.514-1.87-0.763c-0.32-0.127-0.638-0.259-0.961-0.383
	c-0.952-0.364-1.909-0.714-2.876-1.043c-1.235-0.42-2.584-0.42-3.819,0c-0.005,0.001-0.009,0.003-0.013,0.005
	c-0.777,0.265-1.546,0.545-2.312,0.832c-0.421,0.158-0.839,0.323-1.257,0.488c-0.291,0.115-0.583,0.231-0.873,0.348
	c-0.573,0.234-1.143,0.471-1.71,0.717c-0.045,0.019-0.088,0.039-0.133,0.058c-0.65,0.283-1.296,0.573-1.938,0.871
	c10.866,5.046,20.471,12.344,28.223,21.292h20.294C294.23,24.764,294.086,24.606,293.944,24.444z"/>
<g>
</g>
<g>
</g>
<g>
</g>
<g>
</g>
<g>
</g>
<g>
</g>
<g>
</g>
<g>
</g>
<g>
</g>
<g>
</g>
<g>
</g>
<g>
</g>
<g>
</g>
<g>
</g>
<g>
</g>
</svg>
