<?xml version="1.0" encoding="iso-8859-1"?>
<!-- Generator: Adobe Illustrator 19.0.0, SVG Export Plug-In . SVG Version: 6.00 Build 0)  -->
<svg version="1.1" id="Capa_1" xmlns="http://www.w3.org/2000/svg" xmlns:xlink="http://www.w3.org/1999/xlink" x="0px" y="0px"
	 viewBox="0 0 512 512" style="enable-background:new 0 0 512 512;" xml:space="preserve">
<path style="fill:#58565C;" d="M187.735,442.978v51.956c0,9.425-7.641,17.066-17.066,17.066H102.4
	c-9.425,0-17.066-7.641-17.066-17.066v-51.956H187.735z"/>
<g>
	<path style="fill:#49484D;" d="M136.535,477.061c-4.267,0-7.726-3.458-7.726-7.726v-17.068c0-4.268,3.459-7.726,7.726-7.726
		s7.726,3.458,7.726,7.726v17.068C144.261,473.602,140.802,477.061,136.535,477.061z"/>
	<path style="fill:#49484D;" d="M103.207,511.998V494.93c0-4.268,3.459-7.726,7.726-7.726s7.726,3.458,7.726,7.726v17.068H103.207z"
		/>
	<path style="fill:#49484D;" d="M154.408,511.998v-17.064c0-4.268,3.459-7.726,7.726-7.726s7.726,3.458,7.726,7.726v17.064H154.408z
		"/>
</g>
<path style="fill:#58565C;" d="M426.67,442.978v51.956c0,9.425-7.641,17.066-17.066,17.066h-68.269
	c-9.425,0-17.066-7.641-17.066-17.066v-51.956H426.67z"/>
<g>
	<path style="fill:#49484D;" d="M375.47,477.061c-4.267,0-7.726-3.458-7.726-7.726v-17.068c0-4.268,3.459-7.726,7.726-7.726
		s7.726,3.458,7.726,7.726v17.068C383.196,473.602,379.737,477.061,375.47,477.061z"/>
	<path style="fill:#49484D;" d="M342.142,511.998V494.93c0-4.268,3.459-7.726,7.726-7.726s7.726,3.458,7.726,7.726v17.068H342.142z"
		/>
	<path style="fill:#49484D;" d="M393.344,511.998v-17.064c0-4.268,3.459-7.726,7.726-7.726s7.726,3.458,7.726,7.726v17.064H393.344z
		"/>
</g>
<path style="fill:#FFD151;" d="M136.533,41.72V6.181c0-3.414,2.767-6.181,6.181-6.181h226.571c3.414,0,6.181,2.767,6.181,6.181
	V41.72H136.533z"/>
<rect x="187.73" style="fill:#F79B4A;" width="136.53" height="41.721"/>
<path style="fill:#00BCE7;" d="M51.201,435.197c0,9.425,7.641,17.066,17.066,17.066h375.467c9.425,0,17.066-7.641,17.066-17.066
	l0.001-366.931c0-18.851-15.282-34.134-34.134-34.134H85.333c-18.851,0-34.134,15.282-34.134,34.134L51.201,435.197z"/>
<g>
	<path style="fill:#0094D4;" d="M426.668,34.133h-20.605c18.851,0,34.134,15.282,34.134,34.134l-0.001,366.931
		c0,9.425-7.641,17.066-17.066,17.066h20.605c9.425,0,17.066-7.641,17.066-17.066l0.001-366.931
		C460.801,49.415,445.519,34.133,426.668,34.133z"/>
	<path style="fill:#0094D4;" d="M460.8,256h45.019c3.414,0,6.181-2.767,6.181-6.181V159.78c0-3.414-2.767-6.181-6.181-6.181H460.8
		H51.2H6.181c-3.414,0-6.181,2.767-6.181,6.181v90.039C0,253.233,2.767,256,6.181,256H51.2H460.8z"/>
</g>
<path style="fill:#58565C;" d="M460.801,298.664H335.36c-1.639,0-3.211,0.651-4.371,1.81l-13.445,13.445
	c-1.159,1.159-2.731,1.81-4.371,1.81H198.826c-1.639,0-3.212-0.651-4.371-1.811l-13.444-13.445
	c-1.159-1.159-2.731-1.811-4.371-1.811H51.2V401.06h409.6L460.801,298.664z"/>
<g>
	<path style="fill:#FFD151;" d="M147.418,366.928H91.513c-3.414,0-6.181-2.767-6.181-6.181v-21.771c0-3.414,2.767-6.181,6.181-6.181
		h55.905c3.414,0,6.181,2.767,6.181,6.181v21.771C153.599,364.161,150.832,366.928,147.418,366.928z"/>
	<path style="fill:#FFD151;" d="M420.486,366.928h-55.905c-3.414,0-6.181-2.767-6.181-6.181v-21.771
		c0-3.414,2.767-6.181,6.181-6.181h55.905c3.414,0,6.181,2.767,6.181,6.181v21.771C426.667,364.161,423.9,366.928,420.486,366.928z"
		/>
</g>
<g>
	<path style="fill:#F79B4A;" d="M420.486,332.796h-20.605c3.414,0,6.181,2.767,6.181,6.181v21.771c0,3.414-2.767,6.181-6.181,6.181
		h20.605c3.414,0,6.181-2.767,6.181-6.181v-21.771C426.667,335.563,423.9,332.796,420.486,332.796z"/>
	<path style="fill:#F79B4A;" d="M147.833,332.796h-20.605c3.414,0,6.181,2.767,6.181,6.181v21.771c0,3.414-2.767,6.181-6.181,6.181
		h20.605c3.414,0,6.181-2.767,6.181-6.181v-21.771C154.014,335.563,151.247,332.796,147.833,332.796z"/>
</g>
<g>
	<path style="fill:#49484D;" d="M256.001,342.137c-4.267,0-7.726,3.458-7.726,7.726v17.068c0,4.268,3.459,7.726,7.726,7.726
		c4.267,0,7.726-3.458,7.726-7.726v-17.068C263.727,345.595,260.268,342.137,256.001,342.137z"/>
	<path style="fill:#49484D;" d="M281.602,342.137c-4.267,0-7.726,3.458-7.726,7.726v17.068c0,4.268,3.459,7.726,7.726,7.726
		c4.267,0,7.726-3.458,7.726-7.726v-17.068C289.328,345.595,285.869,342.137,281.602,342.137z"/>
	<path style="fill:#49484D;" d="M307.203,342.137c-4.267,0-7.726,3.458-7.726,7.726v17.068c0,4.268,3.459,7.726,7.726,7.726
		c4.267,0,7.726-3.458,7.726-7.726v-17.068C314.929,345.595,311.47,342.137,307.203,342.137z"/>
	<path style="fill:#49484D;" d="M230.401,342.137c-4.267,0-7.726,3.458-7.726,7.726v17.068c0,4.268,3.459,7.726,7.726,7.726
		c4.267,0,7.726-3.458,7.726-7.726v-17.068C238.127,345.595,234.668,342.137,230.401,342.137z"/>
	<path style="fill:#49484D;" d="M204.8,342.137c-4.267,0-7.726,3.458-7.726,7.726v17.068c0,4.268,3.459,7.726,7.726,7.726
		c4.267,0,7.726-3.458,7.726-7.726v-17.068C212.526,345.595,209.067,342.137,204.8,342.137z"/>
</g>
<rect x="51.2" y="102.4" style="fill:#B6E3EE;" width="409.6" height="170.67"/>
<path style="fill:#FF2551;" d="M187.736,102.398V65.914c0-3.414,2.767-6.181,6.181-6.181h124.169c3.414,0,6.181,2.767,6.181,6.181
	v36.485H187.736V102.398z"/>
<path style="fill:#C21750;" d="M318.086,59.733h-20.602c3.414,0,6.181,2.767,6.181,6.181v36.485h20.602V65.914
	C324.267,62.5,321.5,59.733,318.086,59.733z"/>
<g>
	<path style="fill:#B6E3EE;" d="M136.535,60.54h-34.134c-4.267,0-7.726,3.458-7.726,7.726s3.459,7.726,7.726,7.726h34.133
		c4.267,0,7.726-3.458,7.726-7.726S140.802,60.54,136.535,60.54z"/>
	<path style="fill:#B6E3EE;" d="M409.602,60.54H375.47c-4.267,0-7.726,3.458-7.726,7.726s3.459,7.726,7.726,7.726h34.132
		c4.267,0,7.726-3.458,7.726-7.726S413.869,60.54,409.602,60.54z"/>
</g>
<rect x="440.196" y="102.4" style="fill:#96D2E0;" width="20.604" height="170.67"/>
<rect x="440.196" y="298.66" style="fill:#49484D;" width="20.604" height="102.4"/>
<g>
</g>
<g>
</g>
<g>
</g>
<g>
</g>
<g>
</g>
<g>
</g>
<g>
</g>
<g>
</g>
<g>
</g>
<g>
</g>
<g>
</g>
<g>
</g>
<g>
</g>
<g>
</g>
<g>
</g>
</svg>
