<svg xmlns="http://www.w3.org/2000/svg" viewBox="0 0 261.689 255.241">
  <defs>
    <style>
      .cls-1 {
        fill: #d65745;
      }

      .cls-1, .cls-2 {
        fill-rule: evenodd;
      }

      .cls-2 {
        fill: #fff;
      }
    </style>
  </defs>
  <g id="logo" transform="translate(-128.5 -90.75)">
    <path id="path0" class="cls-1" d="M231.326,98.31c-3.613.52-9.249,1.563-11.037,2.041a84.174,84.174,0,0,0-11.508,3.716,5.059,5.059,0,0,1-1.2.5,59.606,59.606,0,0,0-5.575,2.465c-.6.293-2.306,1.243-3.784,2.111s-3.057,1.769-3.508,2a10.847,10.847,0,0,0-1.64,1.1c-.452.375-1.756,1.32-2.9,2.1s-2.4,1.7-2.794,2.049-1.343,1.128-2.109,1.735a114.663,114.663,0,0,0-12.847,13.353l-1.355,1.773-9.512.083-9.512.083,3.038,1.812a26.084,26.084,0,0,0,3.352,1.814.482.482,0,0,1,.418.236,20.062,20.062,0,0,0,4.33,2.6.332.332,0,0,1,.346.314.371.371,0,0,0,.4.323,2.8,2.8,0,0,1,1.133.575l.74.569-1.945,1.158a13.336,13.336,0,0,1-2.215,1.158,1.4,1.4,0,0,0-.687.4,5.7,5.7,0,0,1-1.205.778c-.433.21-1.922,1.022-3.311,1.8s-3.621,2.019-4.966,2.749c-3.316,1.8-3.254,1.839,3.39,1.839a33.765,33.765,0,0,1,5.832.255c0,.14-.55,1.951-1.224,4.02a81.066,81.066,0,0,0-2.577,8.81,89.426,89.426,0,0,0-1.75,11.43l-.218,3.231h2.236l.358-2.758c.2-1.517.433-3.4.524-4.179a87.888,87.888,0,0,1,5.265-19.942l.378-.868h77.488c61.774,0,77.49.081,77.5.4a7.032,7.032,0,0,0,.621,1.655,6.538,6.538,0,0,1,.619,1.75c.023,1.014,2.849,1.949,2.849.94a19.906,19.906,0,0,0-1.271-3.869,2.712,2.712,0,0,1-.3-.7c0-.079,3.865-.189,8.591-.24,7.176-.078,8.774-.178,9.7-.611a59.435,59.435,0,0,1,7.127-2.792c.242,0,.441-.142.441-.316s.267-.314.592-.314c.55,0,1.638-.39,3.98-1.425a17.089,17.089,0,0,1,1.731-.645,28.926,28.926,0,0,0,2.732-1.129,11.412,11.412,0,0,1,2.408-.9c.73,0,1.26-.8.779-1.171-.22-.17-3.333-1.786-6.918-3.589s-7.418-3.736-8.513-4.293l-1.994-1.014-15.348-.011c-12.677-.009-15.42-.089-15.765-.45a16.2,16.2,0,0,1-1.048-1.317c-4.007-5.587-12.794-13.93-19.073-18.109a10.863,10.863,0,0,1-1.065-.8,47.918,47.918,0,0,0-6.128-3.612.49.49,0,0,1-.43-.261c-.138-.344-3.572-2.077-7.2-3.634-.607-.259-1.742-.747-2.524-1.084A93.2,93.2,0,0,0,253.4,98.686c-3.848-.6-18.733-.859-22.07-.376m19.359,2.444c3.036.376,11.833,2.073,13.116,2.531.435.153,1.568.516,2.524.806a85.5,85.5,0,0,1,11.192,4.484c.868.443,2.571,1.307,3.784,1.924a124.591,124.591,0,0,1,11.277,7.321c5.091,4.2,11.046,9.921,12.787,12.289.445.607,1.162,1.493,1.593,1.967s.711.936.622,1.025-30.127.127-66.751.081L174.24,133.1l.953-1.044a7.2,7.2,0,0,0,.953-1.179c0-.711,9.026-9.614,12.3-12.129,1.833-1.411,1.924-1.481,2.73-2.128.373-.3.94-.723,1.26-.94,3.1-2.1,5.257-3.468,6.72-4.268a94.9,94.9,0,0,1,8.682-4.366c.866-.333,1.86-.725,2.208-.87.73-.306,3.668-1.389,5.044-1.86a69.761,69.761,0,0,1,7.726-2.072c1.3-.257,3.144-.619,4.1-.806s3.224-.5,5.045-.689a25.3,25.3,0,0,0,3.468-.5c.272-.259,12.314.136,15.261.5m-20.462,56.235c-.246,1.037-.736,3.511-1.266,6.385-.443,2.408-.872,4.643-1.863,9.7-1.039,5.292-1.527,7.762-1.916,9.7s-.878,4.4-1.916,9.7c-.248,1.258-.67,3.386-.938,4.73s-.694,3.509-.944,4.809-.67,3.43-.931,4.73-.683,3.43-.931,4.73c-.464,2.414-1,5.133-1.905,9.616-.28,1.389-.628,3.233-.774,4.1s-.494,2.669-.772,4.007a25.111,25.111,0,0,0-.507,3.231v.8h20.8l.182-.867c.1-.477.312-1.436.473-2.128.286-1.245.613-2.921,1.413-7.253.4-2.132,1.025-5.348,1.886-9.616.227-1.128.653-3.256.946-4.73s.732-3.674.978-4.887.643-3.271.887-4.573c.53-2.83,1.309-6.852,1.956-10.089.259-1.3.66-3.358.891-4.573.4-2.066.925-4.743,1.909-9.616.384-1.909.819-4.128,1.886-9.618.84-4.321,1.426-7.265,1.617-8.118l.195-.868H230.391l-.168.709m85.068,3.706c0,.953.059,1.343.131.866a6.831,6.831,0,0,0,0-1.735c-.072-.477-.131-.087-.131.868m10.92,24.514c-1.716,1.852-2.711,3.1-2.108,2.632.919-.7.218,7.7-1.023,12.267-.587,2.155-1.33,5.212-1.419,5.832a19.868,19.868,0,0,1-1.464,4.4,1.248,1.248,0,0,0-.271.726,8.37,8.37,0,0,1-.653,1.909c-.359.814-.868,1.977-1.131,2.584-.991,2.287-2.087,4.624-2.881,6.148-.454.866-.972,1.894-1.154,2.283s-.435.708-.566.709-.237.149-.237.329a3.486,3.486,0,0,1-.575,1.182c-.316.471-1.271,1.92-2.123,3.22s-1.693,2.529-1.869,2.732-.675.831-1.109,1.4-.931,1.18-1.1,1.366-.73.895-1.239,1.574a95.138,95.138,0,0,1-11.6,11.255,9.542,9.542,0,0,0-1.355,1.11c-1.46,1.765-14.618,9.393-18.918,10.969-.868.318-2,.753-2.524.969a63.87,63.87,0,0,1-9.143,3.008c-.959.269-2.887.63-7.724,1.447-13.808,2.333-30.059.681-42.409-4.31-.346-.14-1.623-.634-2.838-1.1-8.818-3.362-21.232-11.756-27.708-18.735-.715-.77-1.8-1.915-2.4-2.541-5.148-5.318-10.416-13.494-14.323-22.229-.465-1.041-.98-2.176-1.141-2.522a57.813,57.813,0,0,1-2.97-8.986l-1-3.941-.532,2.113c-.579,2.3-.694,4.527-.252,4.8a2.83,2.83,0,0,1,.494,1.319,7.6,7.6,0,0,0,.492,1.659,18.634,18.634,0,0,1,.808,2.246c1.01,3.305,3.36,8.158,6.8,14.032A72.52,72.52,0,0,0,171.652,234c.142.172.8,1.023,1.453,1.892s1.964,2.387,2.906,3.381a15.827,15.827,0,0,1,1.712,1.979,87.917,87.917,0,0,0,7.592,7.172c.927.738,2.036,1.665,2.463,2.058a14.408,14.408,0,0,0,1.9,1.408,17.369,17.369,0,0,1,1.512,1.016c.21.182.564.469.787.643,1.515,1.179,8.88,5.518,9.368,5.518a.329.329,0,0,1,.339.314.337.337,0,0,0,.354.316,63.768,63.768,0,0,1,7.057,2.976,37.462,37.462,0,0,0,3.941,1.415c1.3.386,2.72.829,3.154.986s1.426.439,2.206.626l3.311.8c9.743,2.353,23.731,2.736,34.212.935a69.089,69.089,0,0,0,9.785-2.359,7.874,7.874,0,0,1,1.576-.48,30.44,30.44,0,0,0,5.034-1.621c.607-.265,1.389-.6,1.735-.747,1.379-.583,5.123-2.291,6.453-2.942,1.644-.808,8.371-4.788,9.353-5.537.371-.284.988-.726,1.372-.987s.988-.721,1.345-1.024a2.858,2.858,0,0,1,.838-.558,5.366,5.366,0,0,0,1.182-.866c.549-.475,1.754-1.495,2.681-2.266a93.419,93.419,0,0,0,13.51-14.522,13.17,13.17,0,0,1,.787-1.063c.369-.418,2.231-3.21,3.492-5.24a119.728,119.728,0,0,0,5.8-11.508,12.7,12.7,0,0,1,.592-1.576,2.7,2.7,0,0,0,.259-.632c.042-.172.518-1.591,1.061-3.152a78.607,78.607,0,0,0,3.755-16c.274-2.3.891-10.331.795-10.331-.011,0-.515.532-1.116,1.182m-158.793,12.3c3.958.049,10.343.049,14.189,0s.609-.091-7.195-.091-10.95.04-6.994.091m112.88,0c3.958.049,10.343.049,14.189,0s.609-.091-7.195-.091-10.952.04-6.994.091" transform="translate(18.567 6.517)"/>
    <path id="path1" class="cls-2" d="M240.732,90.926a119.74,119.74,0,0,0-14.821,2.482c-5.592,1.576-8.25,2.384-9.3,2.823-.348.146-1.837.726-3.311,1.292-4.8,1.845-16.7,7.987-17.658,9.122-.087.1-1.292.959-2.679,1.905s-2.7,1.869-2.906,2.051-.568.471-.793.643a81.729,81.729,0,0,0-9.692,8.687,65.212,65.212,0,0,0-6.476,7.077c-.692.868-1.4,1.75-1.576,1.96a28.083,28.083,0,0,0-1.727,2.3,7.9,7.9,0,0,1-1.1,1.334,28.476,28.476,0,0,0,5.424.236c4.758.006,5.755-.072,5.755-.441a.645.645,0,0,1,.237-.552,22.593,22.593,0,0,0,2.013-2.155,75.439,75.439,0,0,1,7.513-7.567c1.112-.953,2.255-1.947,2.541-2.206a31.539,31.539,0,0,1,3.148-2.518c.605-.424,1.275-.919,1.487-1.1a15.1,15.1,0,0,1,2.454-1.742,13.064,13.064,0,0,0,1.678-1.171,1.463,1.463,0,0,1,.84-.407.6.6,0,0,0,.53-.25c.339-.8,10.606-5.965,15.555-7.827a91.461,91.461,0,0,1,54.549-3.163,80.693,80.693,0,0,1,10.405,3.345,14.446,14.446,0,0,0,1.892.791,95.962,95.962,0,0,1,11.665,5.84,85.83,85.83,0,0,1,14,10.244c4.03,3.594,10.027,10.013,9.881,10.577-.047.189,2.1.307,5.621.307h5.7l-.675-.867c-.371-.477-1.6-2.073-2.728-3.547-15.477-20.184-39.863-33.938-66.012-37.227a197.288,197.288,0,0,0-21.44-.276M211.28,163.349c1.773,3.823-1.033,13.583-5.055,17.592-4.514,4.5-4.807,4.542-31.658,4.637l-22.18.079-.4,1.165a18.014,18.014,0,0,0-.613,2.522,19.359,19.359,0,0,1-.513,2.3c-.422,1.332-1.279,4.864-1.453,5.991a8.894,8.894,0,0,1-.325,1.419c-.1.259-.373,1.36-.609,2.444-.637,2.923-1.657,7.316-2.8,12.06-.271,1.126-.641,2.828-.823,3.784a11.929,11.929,0,0,1-.624,2.282,2.778,2.778,0,0,0-.293,1.093,61.657,61.657,0,0,1-1.619,6.979,11.747,11.747,0,0,0-.412,1.761c-.042.39-.306,1.618-.588,2.73-.849,3.356-1.479,6.141-1.479,6.536,0,.28,2.579.375,10.35.375h10.348l.356-1.814c.445-2.266.5-2.512,1.3-5.6.356-1.387.721-2.877.808-3.311.185-.9.976-4.323,1.644-7.094,1.15-4.786,1.744-7.511,2.306-10.562a16.894,16.894,0,0,1,.8-3,12.723,12.723,0,0,0,.692-2.365l.267-1.419,15.755-.178c16.947-.191,17.787-.263,22.9-2.009,5.03-1.718,11.391-5.914,14.193-9.365.577-.709,1.213-1.464,1.411-1.674a44.733,44.733,0,0,0,4.739-7.741c.789-1.648,1.551-3.226,1.691-3.506a30.292,30.292,0,0,0,1.08-3.432c.017-.087.271-.938.562-1.892s.677-2.514.861-3.468.4-2.089.5-2.522.252-1.818.356-3.074l.189-2.287H221.982c-10.322,0-10.942.032-10.7.552m112.191.036c2.011,6.979-2.331,17.458-8.417,20.315-3.479,1.633-3.069,1.606-27.337,1.786l-22.855.172-.225,1.1c-.125.607-.441,2.206-.7,3.553a19.665,19.665,0,0,1-.662,2.755,7.743,7.743,0,0,0-.369,1.809,8.29,8.29,0,0,1-.443,2.005,9.228,9.228,0,0,0-.452,2.151,13.152,13.152,0,0,1-.494,2.454,10.665,10.665,0,0,0-.46,2.024,30.482,30.482,0,0,1-.622,3.021,14.466,14.466,0,0,0-.471,2.681c0,.484-.112.88-.248.88s-.282.462-.323,1.025a24.065,24.065,0,0,1-.528,2.917c-.248,1.04-.6,2.671-.779,3.625s-.524,2.656-.764,3.784-.611,2.9-.819,3.943-.456,2.1-.55,2.365a7.7,7.7,0,0,0-.273,1.1c-.195,1.177-.721,3.776-1.213,5.991-.271,1.213-.581,2.667-.691,3.231l-.2,1.025H274.4l.155-1.025c.087-.564.244-1.379.35-1.812s.4-1.852.664-3.154.613-2.932.791-3.627.532-2.325.789-3.625.687-3.358.957-4.573.549-2.579.62-3.033.29-1.447.481-2.206.388-1.737.439-2.172.32-1.71.6-2.838.662-2.9.855-3.941.4-2.106.462-2.365.123-.575.136-.7,7.153-.278,15.867-.342c10.11-.076,16.465-.248,17.56-.475,5.46-1.137,12.248-4.289,15.273-7.092a9.171,9.171,0,0,1,1.092-.914,11.037,11.037,0,0,0,1.279-1.356c.59-.694,1.765-2.041,2.611-2.995,2.085-2.352,2.142-2.429,1.922-2.647-.1-.106-.025-.191.178-.191a.414.414,0,0,0,.367-.447.639.639,0,0,1,.242-.552c.526-.227,4.118-7.879,3.931-8.373a18.285,18.285,0,0,1,.594-1.735,29.689,29.689,0,0,0,1.392-5.29c.068-.433.274-1.64.456-2.681s.416-2.849.522-4.022l.191-2.13-10.927.04c-9.951.034-10.912.083-10.776.552M153.889,164.9c-.851,3.5-1.862,8.825-2.5,13.146-.166,1.135-.132,1.2.517,1.029a34.242,34.242,0,0,1,4.359-.189l3.664-.006.176-1.339a92.221,92.221,0,0,1,2.378-11.508l.322-1.025-2.107-.013a20.459,20.459,0,0,1-3.525-.335c-3.193-.723-3.05-.734-3.286.24m194.354,16.682a4.781,4.781,0,0,0-.308,1.107,2.386,2.386,0,0,1-.3.848c-.167.3-.829,1.682-1.472,3.07a23.874,23.874,0,0,1-1.364,2.679c-.108.087-.853,1.222-1.655,2.524a35.052,35.052,0,0,1-2.123,3.127,1.718,1.718,0,0,0-.5,1.279c.248.779-.7,8.6-1.392,11.516-.167.694-.6,2.539-.974,4.1a99.7,99.7,0,0,1-3.937,12.03,4.706,4.706,0,0,0-.471,1.156c-.006.906-6.962,13.926-7.862,14.718-.1.087-.952,1.292-1.894,2.681s-1.8,2.592-1.894,2.679-1.025,1.222-2.06,2.524a111.913,111.913,0,0,1-12.146,12.146c-1.3,1.035-2.437,1.962-2.524,2.06s-1.292.95-2.679,1.894-2.594,1.8-2.681,1.894c-.857.974-12.91,7.361-15.135,8.019a4.345,4.345,0,0,0-1.1.477,102.513,102.513,0,0,1-11.667,3.774c-1.561.371-3.405.808-4.1.974-1.477.352-4.656.838-8.2,1.254a184.044,184.044,0,0,1-18.533.129A95.88,95.88,0,0,1,226.7,277.5c-1.215-.339-2.633-.727-3.154-.863A25.753,25.753,0,0,1,218.834,275a1.248,1.248,0,0,0-.727-.271,8.369,8.369,0,0,1-1.909-.653c-.814-.359-1.977-.87-2.584-1.133-1.582-.685-7.064-3.386-7.251-3.574a16.074,16.074,0,0,0-1.578-.912c-12.715-6.754-26.374-20.663-34.21-34.832-1.366-2.471-1.549-2.4-2.1.823a10.361,10.361,0,0,1-.575,2.287,6.871,6.871,0,0,0-.462,1.892,14.72,14.72,0,0,1-.863,3.063c-.592,1.385-.6,1.521-.112,2.009a31.391,31.391,0,0,1,2.047,2.772c.838,1.235,1.824,2.586,2.191,3a3.609,3.609,0,0,1,.672.946,5.416,5.416,0,0,0,.866,1.182c.475.547,1.493,1.754,2.265,2.681,1.472,1.765,7.955,8.322,10.471,10.591.81.728,3.292,2.673,5.519,4.325s4.19,3.116,4.365,3.254c3.18,2.543,14.853,8.377,21.756,10.872,17.223,6.226,38.974,7.348,57.069,2.942,3.279-.8,4.711-1.179,5.361-1.43.346-.133,1.7-.577,2.995-.986a28.072,28.072,0,0,0,2.681-.938,19.175,19.175,0,0,1,1.892-.762,65.381,65.381,0,0,0,8.04-3.619c4.837-2.437,5.814-2.97,5.938-3.25a.478.478,0,0,1,.414-.237c.291,0,7.53-4.747,8.368-5.488.216-.189.573-.488.8-.66a136.111,136.111,0,0,0,16.083-15.2c.918-1.082,4.508-5.85,5.291-7.026a10.577,10.577,0,0,1,.8-1.065c1.778-1.907,8.016-13.774,10.047-19.117.628-1.648,1.262-3.212,1.409-3.479a7.39,7.39,0,0,0,.509-1.566,8.408,8.408,0,0,1,.49-1.566,12.237,12.237,0,0,0,.609-1.9c.195-.781.615-2.412.931-3.627.639-2.444,1.334-5.793,2.1-10.089.647-3.638,1.046-23.491.475-23.491-.2,0-.5.365-.668.81" transform="translate(10.107)"/>
    <path id="path2" class="cls-2" d="M233.5,212.805v6.307h2.134l.127-3.148c.132-3.313.253-3.627,1.523-3.939,1.61-.4,2.037.38,2.159,3.907l.108,3.18h2.463V215.77c0-4.2-.439-5.326-2.268-5.817a3.878,3.878,0,0,0-3.568.537c-.416.416-.469.216-.469-1.759V206.5H233.5v6.305m75.357-4.05c0,2.125-.032,2.229-.55,1.771-1.542-1.36-4.6-.887-5.982.925-3.15,4.128,2.164,10.572,5.916,7.178.56-.507.617-.511.617-.038,0,.386.288.522,1.1.522h1.1V206.5h-2.208v2.255M128.5,212.964v6.148h2.522v-3.784h1.871c3.585,0,5.066-1.211,5.066-4.141,0-3.3-1.652-4.349-6.858-4.364l-2.6-.008v6.148m62.115-4.888v1.262h4.1v9.775h2.522v-9.775h3.784v-2.522H190.615v1.26m128.331,4.847v6.19h2.522v-3.784h1.922c3.265,0,5.329-1.616,5.329-4.168,0-2.987-1.64-4.092-6.374-4.287l-3.4-.14v6.188m-168.373-4.215c0,1.05-.106,1.26-.632,1.26-.49,0-.63.21-.63.946s.14.946.63.946c.585,0,.632.21.632,2.817,0,4.353.74,5.214,3.96,4.61,1.689-.316,1.54-2.225-.176-2.225h-1.1l-.091-2.6-.091-2.6h1.273c1.205,0,1.273-.051,1.273-.946s-.07-.946-1.26-.946h-1.262v-2.522h-2.522v1.262m197.381,0c0,.91-.13,1.26-.473,1.26q-.474,0-.473.946c0,.632.157.946.473.946.386,0,.473.539.473,2.949,0,4.105,1.146,5.274,4.336,4.419a1.127,1.127,0,0,0-.473-2.2l-1.182.036-.093-2.6-.091-2.6h1.273c1.205,0,1.275-.051,1.275-.946s-.07-.946-1.262-.946h-1.262v-2.522h-2.522v1.262m-212.759,1.349c1.23,1.582-.047,3.065-2.637,3.065h-1.534v-4.187l1.814.212c1.337.155,1.954.394,2.357.91m189.482-.709c2.79.776,1.574,3.774-1.529,3.774h-1.68v-4.1l1.025,0a10.081,10.081,0,0,1,2.183.323m-182.91.84c-3.318,1.748-3.248,7.747.1,8.92,2.857,1,7.142-.6,5.524-2.068-.624-.564-.7-.566-1.6-.047a2.552,2.552,0,0,1-3.218-.11c-1.608-1.266-1.148-1.553,2.48-1.553h3.311v-.978a4.591,4.591,0,0,0-6.6-4.164m19.586-.308a1.285,1.285,0,0,0-.9.586c-.229.592-.736.577-.736-.025,0-.329-.333-.473-1.1-.473h-1.1v9.145h2.208l0-2.287c0-2.885.685-4.2,2.348-4.51,1.054-.2,1.118-.282,1.118-1.436,0-1.29-.083-1.336-1.831-1m5.776.166c-3.131,1.135-4.056,5.634-1.653,8.036,1.165,1.164,1.237,1.188,3.57,1.188h2.384l1.271-1.364c3.619-3.88-.505-9.7-5.571-7.861m38.109-.064c-4.079,1.245-4.3,7.6-.32,9.113a5.091,5.091,0,0,0,6.835-6.411c-.727-2.2-3.876-3.507-6.515-2.7m12.259.127c-.564.253-1.025.325-1.025.161s-.5-.3-1.1-.3h-1.1v9.145h2.208v-3c0-3.186.462-4.257,1.831-4.257,1.453,0,1.79.721,1.9,4.073l.108,3.18h2.463V216c0-5.356-1.856-7.425-5.28-5.889m9.38-.233c-3.428.647-3.042,4.279.6,5.643,1.294.484,1.767.821,1.767,1.26,0,.793-1.771.989-2.747.3-.952-.666-1.595-.621-2.075.149-.656,1.054,1.2,2.195,3.56,2.195,4.539,0,5.187-4.748.789-5.778-1.538-.361-2.136-1.033-1.5-1.68.486-.494.675-.513,1.576-.151,1.515.607,1.827.585,2.34-.172.772-1.139-1.884-2.23-4.312-1.771m30.544.083c-3.663,1.107-4.06,7.174-.585,8.916,2.666,1.339,7.45-.144,5.8-1.8-.611-.611-1.1-.619-1.881-.027a2.506,2.506,0,0,1-3.71-1.173c-.176-.5.11-.551,3.294-.551h3.485l-.221-1.341c-.566-3.415-2.989-4.994-6.181-4.03m25.472.03c-1.865.307-1.833.276-1.585,1.521.191.952.261,1,1.184.768,1.655-.411,3.084-.259,3.549.378.66.9.588.938-1.9.938-2.664,0-3.468.46-3.787,2.17-.469,2.5,1.179,3.948,4.013,3.532a22.474,22.474,0,0,1,2.974-.17l1.655.023v-3.188c0-5.31-1.457-6.737-6.1-5.973m11.784.015a2.565,2.565,0,0,0-1.02.691c-.163.255-.242.2-.246-.174,0-.42-.269-.552-1.109-.552h-1.1v9.145h2.134l.127-3.148c.132-3.313.253-3.627,1.523-3.939,1.61-.4,2.037.38,2.159,3.907l.108,3.18h2.463V215.77c0-4.117-.448-5.318-2.162-5.795a3.588,3.588,0,0,0-2.874.028m38.616-.193c-.174.059-.848.195-1.5.3-.95.159-1.181.333-1.177.893.009,1.26.346,1.459,1.89,1.112,1.678-.376,3.15.051,3.15.914,0,.482-.3.56-2.183.56-2.8,0-3.808.764-3.808,2.893,0,2.227,1.515,3.239,4.2,2.805a18.718,18.718,0,0,1,2.819-.182l1.5.032v-3.562c0-3.218-.07-3.647-.709-4.446a4.765,4.765,0,0,0-4.177-1.324m11.351.07a3.314,3.314,0,0,0-1.182.641c-.5.445-.552.441-.552-.032,0-.4-.3-.522-1.26-.522h-1.262v9.145h2.457l.112-2.649c.123-2.94.569-3.782,2.193-4.137.819-.18.914-.331.914-1.438,0-1.254-.1-1.33-1.419-1.008m13.479.227c-.564.253-1.025.325-1.025.161s-.568-.3-1.26-.3h-1.262v9.145H357.1v-3c0-3.339.569-4.516,2-4.132a6.707,6.707,0,0,0,.866.187c.515.011.918,1.892.918,4.276v2.666h2.259l-.1-3.935c-.134-5.049-1.6-6.559-4.913-5.07m9.387.1c-3.49,1.754-3.394,7.558.148,8.9,2.072.789,5.679-.091,5.679-1.383,0-1.016-.952-1.364-2.013-.738-1.262.745-2.319.685-3.135-.184-1.235-1.315-.944-1.478,2.624-1.478h3.311l0-1.025a4.967,4.967,0,0,0-4.567-4.65,5.516,5.516,0,0,0-2.043.552m12.762-.327a3.813,3.813,0,0,0-1.339.806l-.709.655v-.685c0-.573-.182-.687-1.1-.687h-1.1v9.145h2.208v-1.619c0-3.055,1.226-5.318,2.879-5.318.477,0,.588-.24.588-1.262,0-1.281-.1-1.355-1.419-1.035m4.775.1c-3.36,1.006-2.953,4.168.711,5.541,1.294.484,1.767.821,1.767,1.26,0,.8-1.383.955-2.645.3s-1.845-.621-2.072.095c-.87,2.745,5.946,3.1,7.077.369.795-1.922.172-2.671-3.543-4.262-1.3-.556-1.43-.825-.685-1.443.407-.337.681-.339,1.5-.011,1.828.736,1.969.732,2.329-.055.683-1.5-1.915-2.552-4.438-1.8m-209.2,2.278c.516,1.256,1.122,2.711,1.347,3.231s.66,1.619.967,2.444c.539,1.453,2.991,2.4,2.991,1.15a5.187,5.187,0,0,1,.458-1.339c.66-1.438,2.586-6.232,2.838-7.064.2-.653.115-.709-1.039-.709h-1.254l-.974,2.55a19.94,19.94,0,0,0-.974,2.995c0,.955-.509.371-1.05-1.209-1.478-4.3-1.5-4.332-2.938-4.334l-1.311,0,.94,2.287m68.051,1.014c0,5.414,1.99,7.5,5.439,5.7.477-.248.866-.318.866-.155s.5.3,1.1.3h1.1v-9.145h-2.208v3c0,3.3-.456,4.257-2.032,4.257-1.322,0-1.752-1.06-1.752-4.327v-2.927H243.9v3.3m20.712-2.749a4.725,4.725,0,0,0,.411.866,21.979,21.979,0,0,1,.95,2.365,22.869,22.869,0,0,0,.942,2.365,15.186,15.186,0,0,1,.762,1.814c.764,2.066,2.448,2.232,3.212.314.259-.649.6-1.466.761-1.812.575-1.247,2.52-6.116,2.52-6.305,0-.108-.583-.151-1.294-.1l-1.294.1-1.046,2.787c-.577,1.534-1.1,2.843-1.169,2.91a15.169,15.169,0,0,1-1.205-2.866l-1.086-2.987-1.33,0c-1.131,0-1.3.083-1.133.552m-119.545,1.8c1.192,1.194.98,1.432-1.277,1.432-1.215,0-2.049-.134-2.049-.329,0-.513,1.489-1.877,2.049-1.877a2.57,2.57,0,0,1,1.277.774m115.169-.133c1.252,1.167.912,1.565-1.33,1.565-2.261,0-2.581-.607-.876-1.665,1.1-.683,1.377-.672,2.206.1m110.589.133c1.194,1.194.98,1.432-1.275,1.432-1.216,0-2.051-.134-2.051-.329,0-.513,1.491-1.877,2.051-1.877a2.567,2.567,0,0,1,1.275.774m-200.606-.093c1.775.946,2,2.849.507,4.34-1.434,1.432-3.053,1.1-4.039-.823a2.637,2.637,0,0,1,3.532-3.517m38.508.378a2.9,2.9,0,0,1-1.241,4.8c-1.107.278-2.609-.882-2.857-2.208-.505-2.685,2.172-4.376,4.1-2.592m98.483-.543c1.722.462,2.111,3.065.673,4.5-2.143,2.142-5.079-.588-3.638-3.379.656-1.268,1.391-1.547,2.965-1.126m-21.73,3.148c1.884.376.745,2.465-1.239,2.268-1.462-.144-1.941-1.059-.972-1.854.834-.685.846-.687,2.212-.414m49.511,0c1.771.354.577,2.323-1.409,2.323-1.776,0-2.272-1.561-.694-2.194a2.5,2.5,0,0,1,2.1-.129m-147.217,18.4v6.307H190.3V227.31h-2.524v6.306m28.063-5.2c0,1.078.03,1.1,1.26,1.1s1.262-.026,1.262-1.1-.03-1.1-1.262-1.1-1.26.027-1.26,1.1m20.81,0c0,1.078.03,1.1,1.26,1.1s1.262-.026,1.262-1.1-.03-1.1-1.262-1.1-1.26.027-1.26,1.1m-6.937,1.1c0,.91-.13,1.26-.473,1.26q-.474,0-.473.946c0,.632.157.946.473.946.386,0,.473.539.473,2.949,0,4.105,1.146,5.274,4.336,4.419a1.127,1.127,0,0,0-.473-2.2l-1.182.036-.093-2.6-.091-2.6h1.273c1.205,0,1.275-.051,1.275-.946s-.07-.946-1.262-.946h-1.262v-2.522h-2.522v1.262M195.5,230.855c-3.131,1.135-4.056,5.634-1.654,8.036,1.165,1.164,1.237,1.188,3.57,1.188h2.384l1.271-1.364c3.619-3.88-.505-9.7-5.571-7.861m10.691.057c-3.43,1.493-3.156,6.975.411,8.2a4.062,4.062,0,0,0,4.02-.639c.435-.433.484-.414.484.185,0,1.824-2.539,2.743-4.877,1.767-1.029-.431-1.1-.416-1.6.352-.923,1.408-.089,1.829,3.615,1.829,4.773,0,5.382-.851,5.382-7.535v-4.289h-1.262c-.989,0-1.262.119-1.266.552,0,.4-.074.443-.259.151-.588-.927-3.118-1.237-4.65-.569m16.1-.115c-3.089.9-2.474,4.436.959,5.517,1.915.6,2.136.785,1.85,1.53-.246.641-1.994.666-2.823.04-.878-.664-1.638-.588-2.062.2-1.059,1.979,4.917,2.993,6.654,1.129,1.464-1.572.454-4-1.943-4.665-1.54-.426-2.234-1-1.985-1.654.263-.683,1.012-.69,2.344-.026,1.01.505,1.054.5,1.6-.231,1.1-1.449-1.869-2.639-4.6-1.845m21.677.006c-3.562,1.08-3.939,7.162-.547,8.8,2.963,1.434,7.35-.042,5.664-1.905-.558-.617-.569-.617-1.669.032a2.431,2.431,0,0,1-3.839-2.253c0-2.338,2.13-3.549,3.856-2.193a1.394,1.394,0,0,0,2.136-1.182c0-1.071-3.6-1.909-5.6-1.3m15.135,0c-3.562,1.08-3.939,7.162-.547,8.8,2.963,1.434,7.35-.042,5.664-1.905-.558-.617-.57-.617-1.669.032a2.431,2.431,0,0,1-3.839-2.253c0-2.338,2.13-3.549,3.856-2.193a1.394,1.394,0,0,0,2.136-1.182c0-1.071-3.6-1.909-5.6-1.3m10.133-.013c-4,1.226-4.376,7.414-.547,9.015,4.586,1.914,8.931-2.321,6.86-6.688-.923-1.947-3.931-3.055-6.313-2.327m12.189.025a2.564,2.564,0,0,0-1.02.691c-.163.255-.242.2-.246-.174,0-.42-.269-.552-1.109-.552h-1.1v9.145h2.134l.129-3.188c.142-3.532.562-4.294,2.149-3.9,1.148.289,1.254.624,1.258,4.011l.006,3.074h2.522v-3c0-3.12.464-4.257,1.735-4.257s1.735,1.137,1.735,4.257v3h2.522V236.58c0-4.005-.45-5.274-2.058-5.8a4.557,4.557,0,0,0-3.753.5c-.35.348-.62.316-1.627-.2a3.376,3.376,0,0,0-3.273-.265m17.017-.127a4.092,4.092,0,0,0-1.023.655c-.5.433-.552.429-.552-.042,0-.386-.288-.522-1.1-.522h-1.1v11.983h2.208v-3.485l1,.516c4.62,2.388,8.774-4.491,4.934-8.173a4.941,4.941,0,0,0-4.357-.933m10.564-.074a14.511,14.511,0,0,1-1.5.312c-.952.159-1.182.333-1.177.893.008,1.254.361,1.476,1.824,1.146,1.92-.431,3.53.18,3.53,1.339a13.822,13.822,0,0,1-2.338.1c-2.944,0-3.967.73-3.967,2.834,0,2.234,1.566,3.3,4.2,2.853a17.131,17.131,0,0,1,2.819-.182l1.5.044v-3.572c0-3.7-.257-4.59-1.513-5.248a8.456,8.456,0,0,0-3.373-.52m10.642.3c-.564.253-1.025.325-1.025.161s-.5-.3-1.1-.3h-1.1v9.145h2.208v-3c0-3.186.462-4.257,1.831-4.257,1.453,0,1.79.721,1.9,4.073l.108,3.18h2.463v-3.116c0-5.356-1.856-7.425-5.28-5.889M215.84,235.35v4.573h2.522v-9.145H215.84v4.573m20.81,0v4.573h2.522v-9.145H236.65v4.573m89.546-4.27a2.4,2.4,0,0,0,.3.885,51.464,51.464,0,0,1,2.085,4.96c.32.868.764,1.932.988,2.365.513,1-.237,1.693-1.519,1.411-.706-.155-.866-.055-1.041.638-.3,1.2-.017,1.421,1.86,1.421,2.365,0,2.65-.361,4.733-5.991.48-1.3,1.139-2.961,1.462-3.687.861-1.941.781-2.3-.505-2.3s-1.341.1-2.545,3.746l-.872,2.641-1.163-3.114-1.165-3.114-1.311-.1c-.781-.057-1.311.04-1.311.242m-116.541,1.793a2.377,2.377,0,0,1-.98,4.525c-2.618,0-3.248-3.373-.876-4.679.789-.435.586-.45,1.856.153m-11.058.163c1.775.946,2,2.849.507,4.34-1.434,1.432-3.053,1.1-4.039-.823a2.637,2.637,0,0,1,3.532-3.517m74.111.465c1.7,1.7.511,4.843-1.839,4.843-1.056,0-2.374-1.6-2.374-2.879,0-2.5,2.509-3.67,4.213-1.964m28.2-.189c1.635,1.521.39,5.032-1.782,5.032-.815,0-2.257-1.865-2.257-2.917,0-2.261,2.486-3.562,4.039-2.115m9.8,2.707c1.862.373.823,2.325-1.237,2.325-2.14,0-2.094-2.087.055-2.486a6.54,6.54,0,0,1,1.182.161" transform="translate(0 103.23)"/>
  </g>
</svg>
