<svg xmlns="http://www.w3.org/2000/svg" viewBox="0 0 197.106 72.107">
  <defs>
    <style>
      .cls-1 {
        fill: #3c3c42;
        fill-rule: evenodd;
      }
    </style>
  </defs>
  <g id="image2vector" transform="translate(-990.383 -105.74)">
    <path id="path0" class="cls-1" d="M72.927,25.881c-.234.234-.163,18.716.073,18.842a19.585,19.585,0,0,0,4.212-.016,9.488,9.488,0,0,0,.118-2.448c0-1.282.026-2.4.059-2.486.052-.136.36-.156,2.432-.157,6.568,0,9.446-2.114,9.446-6.925,0-2.976-1.045-4.733-3.537-5.948a9.349,9.349,0,0,0-2.783-.873c-.77-.157-9.862-.147-10.02.012m16.848-.053a16,16,0,0,0,.057,3.54c.067.044,1.4.1,2.972.128l2.849.049.025,7.507c.018,5.347.057,7.545.135,7.639a19.778,19.778,0,0,0,4.311.036c.128-.081.154-1.075.2-7.638l.049-7.545,2.948-.053c1.621-.029,2.959-.062,2.974-.074s.014-.828,0-1.814l-.027-1.793-8.212-.025c-4.517-.014-8.242,0-8.279.041m18.8.125c-.068.127-.1,3.221-.1,9.341s.034,9.214.1,9.341a16.137,16.137,0,0,0,4.263.13c.136-.052.155-.364.155-2.486a10.13,10.13,0,0,1,.118-2.544,9.4,9.4,0,0,1,2.432-.118c5,0,7.531-1.1,8.845-3.841a6.773,6.773,0,0,0-4.861-9.717c-.325-.064-.775-.157-1-.206a78.367,78.367,0,0,0-9.95.1M82.739,29.772a3.084,3.084,0,0,1-.031,5.818c-.788.276-5.135.428-5.289.184a61.818,61.818,0,0,1-.016-6.22,23.843,23.843,0,0,1,5.336.219m35.69.01a3.074,3.074,0,0,1,.305,5.676c-.992.456-5.419.641-5.636.235a55.292,55.292,0,0,1-.038-6.051c.109-.283,4.586-.166,5.369.14M23.409,41.115l.026,2.776h44.9v-5.5l-22.478-.025-22.478-.025.026,2.776m0,8.45.026,2.776,98.465.025,98.466.025.062-.307a41.162,41.162,0,0,0-.035-5.042l-.1-.252H23.384l.026,2.776m0,8.45.026,2.776,98.463.025,98.463.025.068-2.539a17.675,17.675,0,0,0-.031-2.8l-.1-.262H23.384l.026,2.776m152.025,5.8c-.026.068-.036,1.317-.022,2.776l.026,2.652,22.478.025,22.478.025-.026-2.776-.026-2.776-22.43-.025c-18.032-.02-22.439,0-22.478.1M150.481,71.29a2.37,2.37,0,0,0,.356,4.43c2.275.676,4.315-1.244,3.471-3.264a2.963,2.963,0,0,0-3.827-1.166m34.261-.021c-2.379,1.179-1.6,4.409,1.111,4.58,2.828.178,4.028-3.336,1.555-4.553a4.287,4.287,0,0,0-2.666-.027M97.25,73.437c-.163.12-.172.654-.147,9.511l.025,9.384,6.921.025c5.472.02,6.938,0,7-.1a13.207,13.207,0,0,0-.05-3.4,38.75,38.75,0,0,0-4.741-.135l-4.609-.025-.049-7.582c-.027-4.17-.086-7.619-.131-7.664a20.327,20.327,0,0,0-4.218-.013m75.53,1.2c-.172.125-.2.3-.24,1.744l-.049,1.6-.928.029c-1.24.038-1.184-.044-1.184,1.74s-.056,1.7,1.184,1.74l.928.028.059,3.292c.091,5.064.547,6.315,2.643,7.249,1.964.874,5.675.653,6.316-.376a10.427,10.427,0,0,0-.968-2.814l-.138-.216-.468.211a2.107,2.107,0,0,1-2.749-.643,35.1,35.1,0,0,1-.133-6.541c.107-.2.18-.209,1.71-.209,1.982,0,1.834.138,1.834-1.72s.147-1.719-1.834-1.719c-1.944,0-1.8.15-1.8-1.9,0-1.491,0-1.519-.221-1.578a18.55,18.55,0,0,0-3.96.078m-54.946,3.106a7.491,7.491,0,0,0-.081,14.635c5.035,1.205,9.687-1.685,10.192-6.331.613-5.636-4.248-9.628-10.112-8.3m17.15,0a7.086,7.086,0,0,0-.322,13.673,7.827,7.827,0,0,0,6.332-.943c.471-.353.546-.226.409.695a3.259,3.259,0,0,1-3.2,3.092,8.985,8.985,0,0,1-5.383-1.159c-.737-.447-.716-.462-1.556,1.067-.867,1.578-.881,1.692-.266,2.105,2.528,1.7,7.966,2.106,10.91.816a6.193,6.193,0,0,0,3.588-4.275l.272-.973V77.79l-1.958-.027c-2.22-.03-2.116-.068-2.118.783,0,.684-.093.754-.512.395a7.4,7.4,0,0,0-6.193-1.2m26.551-.091c-3.312.7-4.764,2.139-4.765,4.709,0,2.657,1.317,3.715,5.453,4.373,2.717.432,3.164.627,3.164,1.378,0,1.439-3.714,1.572-6.59.236-1.091-.506-.993-.568-1.77,1.118-.7,1.511-.707,1.576-.282,1.837,2.094,1.285,6.983,1.723,9.463.848,4.563-1.61,4.672-6.859.17-8.107-.626-.174-1.03-.257-3.221-.663-1.767-.328-2.211-.584-2.211-1.273,0-1.4,3.4-1.659,6.009-.466a1.6,1.6,0,0,0,.71.2,15.4,15.4,0,0,0,1.4-2.788c.217-.866-5.254-1.881-7.53-1.4m35.815.006a9.675,9.675,0,0,0-2.367.783,7.473,7.473,0,0,0,.448,13.5c3.795,1.542,8.52.365,9.961-2.482.323-.639.387-.572-1.5-1.6-1.575-.856-1.657-.871-1.98-.348-1.347,2.181-4.977,1.889-6.143-.492-2-4.084,2.951-7.937,5.924-4.613.7.779.545.79,2.351-.166,1.733-.919,1.733-.919,1.155-1.824-1.389-2.172-5-3.443-7.853-2.767m14.1.082c-2.966.627-4.52,2.214-4.52,4.615,0,2.112,1.1,3.378,3.452,3.968a31.024,31.024,0,0,0,3.083.6c1.66.272,2.112.525,2.112,1.183,0,1.518-4.609,1.545-7.043.04-.487-.3-.571-.218-1.27,1.256-.862,1.818-.81,1.917,1.336,2.582,6.279,1.945,11.892-.436,11.2-4.752-.34-2.126-1.725-3.035-5.62-3.689-2.43-.407-3.028-.687-3.028-1.416,0-1.411,3.656-1.675,6.113-.441.656.329.674.313,1.393-1.207.767-1.619.767-1.624.06-1.97a13.555,13.555,0,0,0-7.271-.768m-61.8.191c-.171.319-.138,14.2.033,14.342a8.527,8.527,0,0,0,2.186.086l2.051-.026.027-7.075c.015-3.891,0-7.174-.026-7.3-.078-.322-4.1-.352-4.271-.031m34.3-.059c-.083.1-.106,2.028-.087,7.3l.025,7.162,2.138.026,2.138.026-.025-7.3-.025-7.3-2.025-.026c-1.626-.021-2.047,0-2.138.109M121.564,81.5a4.039,4.039,0,0,1,1.962,4.325,3.572,3.572,0,0,1-7.106-.045c-.452-3.259,2.393-5.625,5.144-4.279m17.934.011a3.434,3.434,0,0,1,1.782,4.344c-1.057,2.825-5.533,3-6.877.272-1.491-3.029,1.875-6.079,5.094-4.616" transform="translate(967 80)"/>
  </g>
</svg>
