<svg id="svg" version="1.1" width="400" height="393.35288367546434" viewBox="0 0 400 393.35288367546434" xmlns="http://www.w3.org/2000/svg" xmlns:xlink="http://www.w3.org/1999/xlink" ><g id="svgg"><path id="path0" d="M287.932 38.368 L 287.879 55.034 287.331 56.149 C 286.646 57.545,285.175 58.892,283.756 59.423 C 282.685 59.823,282.608 59.824,236.454 59.824 L 190.225 59.824 190.225 89.148 L 190.225 118.471 236.706 118.522 L 283.187 118.573 284.319 119.146 C 285.641 119.816,286.860 121.061,287.456 122.351 C 287.878 123.263,287.879 123.309,287.932 140.323 C 287.961 149.704,288.042 157.380,288.111 157.380 C 288.301 157.380,374.957 92.395,374.967 92.246 C 374.978 92.082,288.355 21.701,288.142 21.701 C 288.056 21.701,287.961 29.201,287.932 38.368 M48.068 269.941 L 16.858 301.173 48.068 334.958 L 79.277 368.743 79.374 353.629 L 79.472 338.514 79.987 337.415 C 80.686 335.926,81.730 334.822,83.058 334.170 L 84.164 333.627 143.695 333.529 L 203.226 333.431 203.275 304.156 L 203.325 274.880 143.842 274.830 L 84.360 274.780 83.256 274.262 C 81.849 273.603,80.649 272.403,79.990 270.997 L 79.472 269.892 79.374 254.301 L 79.277 238.709 48.068 269.941 " stroke="none" fill="#fbdb33" fill-rule="evenodd"></path><path id="path1" d="M278.902 1.646 C 277.481 2.244,276.205 3.462,275.504 4.888 L 274.976 5.963 274.923 26.342 L 274.871 46.722 228.393 46.773 L 181.916 46.823 180.813 47.365 C 179.526 47.997,178.245 49.306,177.646 50.601 L 177.224 51.515 177.173 88.893 L 177.122 126.270 177.542 127.407 C 178.117 128.962,179.736 130.582,181.288 131.156 L 182.419 131.574 228.645 131.574 L 274.871 131.574 274.923 152.053 L 274.976 172.532 275.520 173.565 C 277.249 176.846,281.466 178.201,284.555 176.469 C 285.680 175.839,389.374 98.061,390.381 97.093 C 393.536 94.059,392.972 89.788,388.982 86.507 C 372.664 73.083,284.906 2.035,284.262 1.726 C 282.863 1.054,280.395 1.017,278.902 1.646 M331.638 56.908 C 355.473 76.273,374.972 92.174,374.967 92.246 C 374.957 92.395,288.301 157.380,288.111 157.380 C 288.042 157.380,287.961 149.704,287.932 140.323 C 287.879 123.309,287.878 123.263,287.456 122.351 C 286.860 121.061,285.641 119.816,284.319 119.146 L 283.187 118.573 236.706 118.522 L 190.225 118.471 190.225 89.148 L 190.225 59.824 236.454 59.824 C 282.608 59.824,282.685 59.823,283.756 59.423 C 285.175 58.892,286.646 57.545,287.331 56.149 L 287.879 55.034 287.932 38.368 C 287.961 29.201,288.056 21.701,288.142 21.701 C 288.229 21.701,307.802 37.544,331.638 56.908 M7.625 53.372 L 7.625 60.020 27.273 60.020 L 46.921 60.020 46.921 53.372 L 46.921 46.725 27.273 46.725 L 7.625 46.725 7.625 53.372 M85.826 53.372 L 85.826 60.020 92.473 60.020 L 99.120 60.020 99.120 53.372 L 99.120 46.725 92.473 46.725 L 85.826 46.725 85.826 53.372 M111.828 53.372 L 111.828 60.020 138.025 60.020 L 164.223 60.020 164.223 53.372 L 164.223 46.725 138.025 46.725 L 111.828 46.725 111.828 53.372 M1.173 92.473 L 1.173 99.120 7.722 99.120 L 14.272 99.120 14.272 92.473 L 14.272 85.826 7.722 85.826 L 1.173 85.826 1.173 92.473 M27.175 92.473 L 27.175 99.120 50.049 99.120 L 72.923 99.120 72.923 92.473 L 72.923 85.826 50.049 85.826 L 27.175 85.826 27.175 92.473 M105.376 92.473 L 105.376 99.120 112.023 99.120 L 118.671 99.120 118.671 92.473 L 118.671 85.826 112.023 85.826 L 105.376 85.826 105.376 92.473 M131.378 92.473 L 131.378 99.120 147.801 99.120 L 164.223 99.120 164.223 92.473 L 164.223 85.826 147.801 85.826 L 131.378 85.826 131.378 92.473 M20.723 125.024 L 20.723 131.574 27.273 131.574 L 33.822 131.574 33.822 125.024 L 33.822 118.475 27.273 118.475 L 20.723 118.475 20.723 125.024 M46.725 125.024 L 46.725 131.574 53.372 131.574 L 60.020 131.574 60.020 125.024 L 60.020 118.475 53.372 118.475 L 46.725 118.475 46.725 125.024 M72.727 125.024 L 72.727 131.574 92.375 131.574 L 112.023 131.574 112.023 125.024 L 112.023 118.475 92.375 118.475 L 72.727 118.475 72.727 125.024 M138.025 125.024 L 138.025 131.574 151.124 131.574 L 164.223 131.574 164.223 125.024 L 164.223 118.475 151.124 118.475 L 138.025 118.475 138.025 125.024 M84.796 216.232 C 82.589 216.608,84.362 214.908,42.108 257.162 C 9.591 289.678,2.116 297.248,1.736 298.045 C 1.028 299.532,1.060 302.310,1.802 303.812 C 2.255 304.728,74.229 383.071,80.709 389.702 C 84.372 393.451,89.760 392.899,91.897 388.558 L 92.375 387.586 92.427 367.108 L 92.478 346.630 151.962 346.580 L 211.445 346.530 212.744 345.890 C 214.232 345.158,215.090 344.274,215.816 342.726 L 216.325 341.642 216.325 304.199 L 216.325 266.756 215.682 265.451 C 214.911 263.884,213.687 262.736,212.192 262.177 C 211.132 261.780,210.975 261.779,151.801 261.779 L 92.473 261.779 92.473 241.552 C 92.473 221.693,92.466 221.305,92.076 220.262 C 91.349 218.320,89.386 216.637,87.488 216.328 C 85.991 216.084,85.723 216.075,84.796 216.232 M79.990 270.997 C 80.649 272.403,81.849 273.603,83.256 274.262 L 84.360 274.780 143.842 274.830 L 203.325 274.880 203.275 304.156 L 203.226 333.431 143.695 333.529 L 84.164 333.627 83.058 334.170 C 81.730 334.822,80.686 335.926,79.987 337.415 L 79.472 338.514 79.374 353.629 L 79.277 368.743 48.068 334.958 L 16.858 301.173 48.068 269.941 L 79.277 238.709 79.374 254.301 L 79.472 269.892 79.990 270.997 M229.326 268.328 L 229.326 274.878 261.975 274.878 L 294.624 274.878 294.624 268.328 L 294.624 261.779 261.975 261.779 L 229.326 261.779 229.326 268.328 M307.527 268.328 L 307.527 274.878 314.076 274.878 L 320.626 274.878 320.626 268.328 L 320.626 261.779 314.076 261.779 L 307.527 261.779 307.527 268.328 M353.079 268.328 L 353.079 274.878 372.727 274.878 L 392.375 274.878 392.375 268.328 L 392.375 261.779 372.727 261.779 L 353.079 261.779 353.079 268.328 M229.326 307.429 L 229.326 313.978 248.974 313.978 L 268.622 313.978 268.622 307.429 L 268.622 300.880 248.974 300.880 L 229.326 300.880 229.326 307.429 M281.329 307.429 L 281.329 313.978 287.977 313.978 L 294.624 313.978 294.624 307.429 L 294.624 300.880 287.977 300.880 L 281.329 300.880 281.329 307.429 M320.430 307.429 L 320.430 313.978 343.402 313.978 L 366.373 313.978 366.373 307.429 L 366.373 300.880 343.402 300.880 L 320.430 300.880 320.430 307.429 M379.081 307.429 L 379.081 313.978 385.728 313.978 L 392.375 313.978 392.375 307.429 L 392.375 300.880 385.728 300.880 L 379.081 300.880 379.081 307.429 M229.326 339.980 L 229.326 346.628 235.875 346.628 L 242.424 346.628 242.424 339.980 L 242.424 333.333 235.875 333.333 L 229.326 333.333 229.326 339.980 M255.327 339.980 L 255.327 346.628 261.975 346.628 L 268.622 346.628 268.622 339.980 L 268.622 333.333 261.975 333.333 L 255.327 333.333 255.327 339.980 M300.880 339.980 L 300.880 346.628 320.528 346.628 L 340.176 346.628 340.176 339.980 L 340.176 333.333 320.528 333.333 L 300.880 333.333 300.880 339.980 M353.079 339.980 L 353.079 346.628 359.726 346.628 L 366.373 346.628 366.373 339.980 L 366.373 333.333 359.726 333.333 L 353.079 333.333 353.079 339.980 M385.728 339.980 L 385.728 346.628 392.278 346.628 L 398.827 346.628 398.827 339.980 L 398.827 333.333 392.278 333.333 L 385.728 333.333 385.728 339.980 " stroke="none" fill="#040404" fill-rule="evenodd"></path></g></svg>