<svg id="svg" version="1.1" width="400" height="426.6401590457256" viewBox="0 0 400 426.6401590457256" xmlns="http://www.w3.org/2000/svg" xmlns:xlink="http://www.w3.org/1999/xlink" ><g id="svgg"><path id="path0" d="M116.349 55.043 C 106.479 59.835,98.363 63.798,98.313 63.848 C 98.263 63.898,138.214 83.250,187.094 106.852 L 275.967 149.764 276.701 149.419 C 282.958 146.478,312.127 132.302,312.127 132.202 C 312.127 132.065,135.150 46.533,134.592 46.400 C 134.428 46.361,126.219 50.250,116.349 55.043 M299.354 152.329 L 282.505 160.492 282.505 192.970 C 282.505 210.832,282.533 225.447,282.568 225.447 C 282.603 225.447,290.275 221.755,299.616 217.241 L 316.600 209.035 316.651 176.585 C 316.691 150.683,316.651 144.138,316.452 144.151 C 316.315 144.160,308.621 147.840,299.354 152.329 " stroke="none" fill="#fbdb33" fill-rule="evenodd"></path><path id="path1" d="M198.310 1.323 C 197.988 1.409,14.303 90.025,6.071 94.065 C 3.450 95.352,2.709 95.954,1.861 97.483 L 1.292 98.509 1.292 213.320 L 1.292 328.131 1.861 329.157 C 2.709 330.687,3.450 331.288,6.071 332.575 C 7.379 333.217,51.123 354.353,103.280 379.545 L 198.111 425.348 200.000 425.348 L 201.889 425.348 296.720 379.545 C 348.877 354.353,392.621 333.217,393.929 332.575 C 396.550 331.288,397.291 330.687,398.139 329.157 L 398.708 328.131 398.708 213.320 L 398.708 98.509 398.139 97.483 C 397.291 95.954,396.550 95.352,393.929 94.065 C 392.621 93.423,348.877 72.293,296.720 47.108 L 201.889 1.318 200.298 1.267 C 199.423 1.239,198.529 1.264,198.310 1.323 M289.079 57.505 C 337.835 81.041,377.728 100.351,377.730 100.415 C 377.732 100.480,366.243 106.081,352.199 112.862 L 326.665 125.193 324.217 123.959 C 322.871 123.280,282.867 103.947,235.320 80.996 C 176.075 52.399,148.956 39.214,149.142 39.096 C 150.264 38.389,199.959 14.551,200.166 14.622 C 200.312 14.671,240.322 33.969,289.079 57.505 M223.509 89.269 C 272.249 112.807,312.127 132.127,312.127 132.202 C 312.127 132.302,282.958 146.478,276.701 149.419 L 275.967 149.764 187.094 106.852 C 138.214 83.250,98.263 63.898,98.313 63.848 C 98.643 63.517,134.354 46.344,134.592 46.400 C 134.756 46.439,174.769 65.730,223.509 89.269 M176.664 115.785 L 269.881 160.794 269.980 198.837 L 270.080 236.879 270.523 237.839 C 271.691 240.370,273.686 241.654,276.438 241.645 L 278.032 241.640 301.889 230.128 C 326.898 218.060,327.043 217.985,327.884 216.767 C 329.240 214.804,329.120 218.575,329.178 176.230 L 329.231 138.047 357.607 124.357 C 373.215 116.828,386.051 110.633,386.133 110.590 C 386.215 110.548,386.282 158.141,386.282 216.353 L 386.282 322.192 296.670 365.459 C 247.383 389.255,206.901 408.785,206.710 408.857 C 206.378 408.983,206.364 403.900,206.411 303.157 L 206.461 197.326 228.131 186.876 C 248.813 176.904,249.852 176.377,250.913 175.337 C 255.323 171.013,251.253 163.473,245.213 164.776 C 244.670 164.893,234.415 169.730,222.191 175.634 C 210.067 181.491,200.083 186.282,200.003 186.282 C 199.924 186.282,195.843 184.336,190.934 181.958 L 182.008 177.634 180.119 177.634 C 176.262 177.634,173.861 179.962,173.864 183.698 C 173.867 187.660,174.261 187.996,184.992 193.198 L 193.539 197.340 193.589 303.165 C 193.636 403.901,193.622 408.983,193.290 408.857 C 193.099 408.785,152.617 389.255,103.330 365.458 L 13.718 322.191 13.718 216.361 L 13.718 110.531 14.364 110.814 C 14.719 110.969,45.696 125.919,83.201 144.037 C 132.213 167.713,151.699 177.035,152.485 177.182 C 157.484 178.116,161.430 172.744,159.157 168.097 C 158.152 166.044,161.482 167.723,89.579 133.020 C 52.557 115.152,22.268 100.480,22.270 100.416 C 22.273 100.335,83.091 70.863,83.424 70.781 C 83.437 70.778,125.395 91.030,176.664 115.785 M316.651 176.585 L 316.600 209.035 299.616 217.241 C 290.275 221.755,282.603 225.447,282.568 225.447 C 282.533 225.447,282.505 210.832,282.505 192.970 L 282.505 160.492 299.354 152.329 C 308.621 147.840,316.315 144.160,316.452 144.151 C 316.651 144.138,316.691 150.683,316.651 176.585 M31.665 254.802 C 27.328 256.338,26.371 262.887,30.075 265.680 C 30.427 265.946,43.285 272.232,58.648 279.650 L 86.581 293.136 88.171 293.133 C 93.904 293.122,96.729 286.366,92.664 282.387 C 91.933 281.671,41.748 257.113,36.581 254.942 C 35.280 254.396,32.996 254.331,31.665 254.802 M32.207 284.071 C 27.468 285.627,26.093 291.607,29.740 294.802 C 30.714 295.655,58.845 309.446,60.613 309.937 C 65.742 311.362,70.163 305.996,67.911 301.078 C 66.984 299.053,67.023 299.075,50.846 291.261 L 35.885 284.034 34.294 283.971 C 33.419 283.936,32.480 283.981,32.207 284.071 " stroke="none" fill="#040404" fill-rule="evenodd"></path></g></svg>