<svg xmlns="http://www.w3.org/2000/svg" viewBox="0 0 228.889 229.087">
  <defs>
    <style>
      .cls-1 {
        fill: #fff;
        fill-rule: evenodd;
      }

      .cls-2, .cls-3, .cls-6 {
        fill: none;
      }

      .cls-2, .cls-3 {
        stroke: #e6e6e6;
      }

      .cls-2 {
        stroke-width: 3px;
      }

      .cls-3 {
        stroke-width: 2px;
      }

      .cls-4, .cls-7 {
        fill: #e6e6e6;
      }

      .cls-5, .cls-7 {
        stroke: none;
      }
    </style>
  </defs>
  <g id="Group_42" data-name="Group 42" transform="translate(-1010.649 -1467.627)">
    <path id="path0" class="cls-1" d="M160.585,15.229c-25.938,1.821-51.421,12.316-68.669,28.28l-1.764,1.633.935.975c1.266,1.32,1.117,1.379,5.354-2.153A111.213,111.213,0,0,1,222.876,33.206,110.02,110.02,0,0,1,264.92,76.087a20.219,20.219,0,0,0,2.2,3.479c.5.193,2.572-.928,2.572-1.392a79.958,79.958,0,0,0-4.748-8.69c-.482-.747-1.435-2.237-2.12-3.31C241.87,33.281,200.074,12.455,160.585,15.229m.272,13.865C101.505,33.566,59.413,85.974,67.921,144.8c3.819,26.4,19.074,50.971,41.637,67.056,37.669,26.852,89.767,24,124.446-6.821A100.638,100.638,0,0,0,210.343,38.5a103.046,103.046,0,0,0-49.487-9.4m18.456,3.747c71.786,9.152,109.125,90.313,69.238,150.5-38.441,58-123.724,58.006-162.253.006C45.051,121.251,86.175,38.1,160.992,32.328a174.027,174.027,0,0,1,18.321.512M75.747,61.143a13.289,13.289,0,0,0-1.375,1.692c-27.146,37.367-28.5,89.357-3.354,128.415,12.422,19.291,30.861,34.955,51.224,43.512,4.348,1.827,4.257,1.823,4.8.233s.6-1.554-3.369-3.191c-19.309-7.962-37.342-23.133-49.339-41.508A111.033,111.033,0,0,1,75.482,67.177c1.368-2.016,2.578-3.817,2.69-4,.128-.213-.18-.691-.829-1.287-1.114-1.023-1.159-1.044-1.6-.744m93.406,30.42,106.6,7.011c-1.194.244-1.214.618-.244,4.59,2.791,11.432,3.844,27.871,2.5,39.061a111.278,111.278,0,0,1-124.4,97.667c-2.065-.258-4.36-.476-5.1-.484l-1.347-.014-.237,1.189c-.327,1.642-.1,1.781,3.837,2.324,25.457,3.512,50.189-.961,71.838-12.993a114.341,114.341,0,0,0,57.653-119.852c-1.744-10.215-2.411-11.916-4.507-11.488m-135.8,29.265v1.224l27.888-.07,27.889-.069v-2.171l-27.889-.07-27.888-.069v1.224M93.612,157.992c-.257.118-.339,1.61-.339,6.1v5.949h1.9v-2.117c0-2.5.189-2.769,1.964-2.769,4.3,0,6.108-4.926,2.447-6.663a17.021,17.021,0,0,0-5.971-.5m11.08.222c-.548.661-.265,4.07.348,4.186.694.132,1.041-.288,1.238-1.5.128-.791.293-1.031.705-1.031.514,0,.538.193.538,4.195v4.195l-.652.155c-.878.207-1.35.961-.89,1.421s4.417.635,5.19.222c.882-.472.646-1.46-.391-1.638l-.815-.14-.075-4.142c-.064-3.525-.013-4.166.343-4.3.644-.247,1.186.382,1.277,1.482.072.861.176,1,.762,1,.8,0,1.231-3.776.488-4.247-.649-.412-7.71-.28-8.067.151m12.262-.222c-.632.291-.473,11.955.165,12.122,1.1.288,1.4-.236,1.4-2.5,0-2.407.045-2.458,2.126-2.459,4.089,0,5.7-4.85,2.205-6.656a16.041,16.041,0,0,0-5.892-.512m23.207.132c-.429.25-.475.834-.475,5.969v5.693l.7.265a23.529,23.529,0,0,0,6.341.093c.736-.147.85-.277.781-.882-.082-.7-.112-.711-2.8-.845l-2.714-.136-.136-4.964c-.11-4.012-.214-5.013-.543-5.221-.5-.317-.564-.315-1.153.028m37.571-.057c-.216.137-.325.6-.272,1.15a1.2,1.2,0,1,0,2.391-.223c.007-.9-1.274-1.463-2.119-.927m22.137.1a2.453,2.453,0,0,0-.527,1.68c-.075,1.267-.129,1.354-.979,1.573-1.243.32-1.183,1.62.085,1.836l.814.139.164,2.39c.313,4.574,4.505,6.468,6.363,2.875.76-1.469-.353-2.153-1.5-.926-1.375,1.464-2.661.762-2.9-1.585-.267-2.594-.079-2.893,1.831-2.893,2.712,0,2.68-1.691-.036-1.848-1.691-.1-1.868-.286-1.874-1.991,0-.9-.128-1.308-.433-1.425-.546-.209-.478-.222-1,.175m12.876-.1c-.216.137-.325.6-.272,1.15.127,1.335,2.2,1.441,2.351.12a1.325,1.325,0,0,0-2.079-1.27M98.85,160.4c1.3,1.3.545,2.754-1.57,3.035-1.886.252-2.741-1.19-1.943-3.272.285-.742,2.7-.579,3.512.237m23.389-.045c1.524,1.523-.613,3.677-3.043,3.067-.689-.173-1.062-2.939-.477-3.534.351-.358,3.054,0,3.52.467m30.677,1.611a4.44,4.44,0,0,0-2.036,4.32c.565,5.884,9.268,5.071,8.841-.826a4.405,4.405,0,0,0-6.8-3.493m11.574,0c-4.07,3.142-.835,9.754,3.763,7.693.671-.3.654,1.228-.022,1.839-.64.579-2.526.584-3.637.01-.795-.411-.872-.408-1.208.052-1.354,1.851,3.786,3.058,5.961,1.4,1.331-1.014,1.548-1.979,1.55-6.883,0-4.673-.151-5.084-1.685-4.505a1.6,1.6,0,0,1-1.317.051,3.714,3.714,0,0,0-3.406.343m11.4-.213a.986.986,0,0,0,.713,1.468c1.747.247,1.563,5.2-.192,5.2-.758,0-.922,1.456-.2,1.735a17.028,17.028,0,0,0,4.675-.01c.986-.264.724-1.542-.354-1.726l-.814-.139-.078-3.1a12.8,12.8,0,0,0-.373-3.459c-.421-.507-3.184-.478-3.382.036m11.561.219c-2.506,1.7-1.43,3.889,2.291,4.667,2.055.43,2.763.85,2.325,1.378-.483.582-1.689.661-3.466.226-1.911-.468-2.5-.367-2.5.431,0,1.89,6.164,2.187,7.6.367,1.46-1.857.218-3.6-2.974-4.169-2.172-.388-2.873-.9-2.049-1.5.62-.454,1.793-.482,3.247-.078,1.141.316,1.921-.162,1.6-.986-.415-1.081-4.628-1.311-6.073-.332m23.452-.219a.986.986,0,0,0,.714,1.468c.944.133,1.074.453,1.079,2.654,0,2-.184,2.4-1.218,2.584a.885.885,0,0,0-.082,1.685c2.239.6,5.163.092,5.05-.877-.064-.551-.265-.741-.9-.849l-.814-.139-.078-3.1a12.8,12.8,0,0,0-.373-3.459c-.421-.507-3.184-.478-3.382.036m11.839.219c-4.611,3.147-.887,9.607,4.652,8.069,1.742-.484,2.267-2.456.546-2.048-3.727.885-5.2.213-5.2-2.374,0-2.737,3.21-3.452,4.479-1,.894,1.729,2.035.973,2.035-1.349,0-1.643-.465-2.122-1.6-1.65a1.4,1.4,0,0,1-1.339.033,3.933,3.933,0,0,0-3.57.316m11.4-.014c-2.681,1.818-1.613,3.763,2.632,4.792,3.054.74,2.111,2.32-.973,1.629-2.212-.5-2.873-.445-2.969.227-.277,1.946,6.068,2.311,7.544.435,1.565-1.991-.834-4.422-4.362-4.422a1.254,1.254,0,0,1-.815-.437c-.819-.986,1.205-1.51,3.351-.868.968.291,1.122.27,1.459-.192,1.123-1.536-3.861-2.526-5.868-1.164m-77.758,1.356a2.924,2.924,0,0,1,.423,4.757,2.967,2.967,0,0,1-3.229-.276c-2.065-2.2.129-5.7,2.806-4.48m11.628-.02c1.534.7,1.366,4.324-.225,4.849-2.539.838-4.283-2.415-2.339-4.36a1.934,1.934,0,0,1,2.564-.489" transform="translate(957.604 1452.645)"/>
    <g id="Rectangle_44" data-name="Rectangle 44" class="cls-2" transform="translate(1105 1560)">
      <path class="cls-5" d="M4,0H39a4,4,0,0,1,4,4v9a0,0,0,0,1,0,0H0a0,0,0,0,1,0,0V4A4,4,0,0,1,4,0Z"/>
      <path class="cls-6" d="M4,1.5H39A2.5,2.5,0,0,1,41.5,4v6A1.5,1.5,0,0,1,40,11.5H3A1.5,1.5,0,0,1,1.5,10V4A2.5,2.5,0,0,1,4,1.5Z"/>
    </g>
    <line id="Line_13" data-name="Line 13" class="cls-3" y2="23" transform="translate(1123.5 1537.5)"/>
    <g id="Path_71" data-name="Path 71" class="cls-4" transform="translate(1116.724 1548) rotate(-45)">
      <path class="cls-5" d="M 12.14491558074951 12.14491558074951 L 2.414215803146362 12.14491558074951 L 12.14491558074951 2.414215803146362 L 12.14491558074951 12.14491558074951 Z"/>
      <path class="cls-7" d="M 11.14491558074951 4.828415870666504 L 4.828415870666504 11.14491558074951 L 11.14491558074951 11.14491558074951 L 11.14491558074951 4.828415870666504 M 13.14491558074951 -3.814697265625e-06 L 13.14491558074951 13.14491558074951 L -3.814697265625e-06 13.14491558074951 L 13.14491558074951 -3.814697265625e-06 Z"/>
    </g>
  </g>
</svg>
